<svg width="202" height="72" viewBox="0 0 202 72" fill="none" xmlns="http://www.w3.org/2000/svg">
<path d="M24.0403 25.478H36.5284V33.0808H24.0403V25.478Z" fill="#F8AF78"/>
<path fill-rule="evenodd" clip-rule="evenodd" d="M36.035 25.9697H24.5337V32.5891H36.035V25.9697ZM24.0403 25.478V33.0808H36.5284V25.478H24.0403Z" fill="black"/>
<path d="M30.2493 31.9131C34.4036 31.9131 36.3392 30.0837 36.7877 29.1689C43.4971 29.1689 50.7273 33.6068 54.6852 42.2419C56.0974 45.6218 56.3718 49.5661 56.677 54.355L55.5302 55.9811L44.9708 56.383C45.0857 55.3404 45.3613 53.0646 45.545 52.3018C45.7288 51.539 45.663 51.5132 46.2499 51.2843C46.0203 50.6486 45.6641 48.7685 45.3273 48.0667C44.9062 47.1895 44.5797 46.0148 43.393 45.0231C42.4436 44.2298 42.1552 44.1077 42.1297 44.1459L41.9 44.6035L40.5591 59.5361L36.9132 60.2853L30.2493 60.8189L21.3628 60.2853L18.119 59.612L17.3254 44.802V44.0093L15.1781 48.3155L14.2095 49.7094C14.5574 50.5938 14.8202 51.7329 14.3728 52.4688C13.9254 53.2046 13.8544 53.3956 13.542 53.4169C13.292 53.4338 10.9225 54.9292 10.3461 55.9884L9.77577 57.1241L5.44847 54.8468C4.74828 53.0814 4.34489 51.3641 4.19679 49.7094C3.86719 48.9636 3.25983 47.3171 3.46726 46.697C3.67468 46.077 4.87449 45.5087 5.44847 45.302L6.63043 42.202L9.79361 36.9836L13.1986 32.9525C16.4389 30.8152 20.1664 29.4762 23.7109 29.1689C24.1594 30.0837 26.095 31.9131 30.2493 31.9131Z" fill="white"/>
<path fill-rule="evenodd" clip-rule="evenodd" d="M42.3149 44.1115L40.7163 59.6785L40.2259 59.6285L41.8245 44.0615L42.3149 44.1115ZM17.5023 44.7511L18.0953 59.3163L17.6027 59.3362L17.0098 44.7711L17.5023 44.7511Z" fill="black"/>
<path fill-rule="evenodd" clip-rule="evenodd" d="M23.3994 60.5607L10.6664 58.4405L10.7476 57.9561L23.4807 60.0763C28.4023 60.8958 33.433 60.8105 38.3238 59.8245L47.585 57.9576L47.6828 58.439L38.4215 60.306C33.4717 61.3038 28.3804 61.3901 23.3994 60.5607Z" fill="black"/>
<path fill-rule="evenodd" clip-rule="evenodd" d="M45.6493 32.2102C42.8886 30.5832 39.8474 29.7894 36.3009 29.1808L36.3847 28.6963C39.9512 29.3083 43.0625 30.1145 45.9005 31.787C48.7419 33.4614 51.2914 35.9932 53.757 40.0291C55.2116 42.4101 56.1727 45.6157 56.607 48.5264C56.8245 49.9835 56.9111 51.3744 56.8595 52.5593C56.8082 53.7364 56.6196 54.7387 56.265 55.3983L56.1647 55.5847L46.0667 52.0035L46.0357 51.8736C45.901 51.31 45.8107 50.7787 45.7258 50.279C45.7001 50.1281 45.675 49.9801 45.6492 49.8349C45.5373 49.2042 45.4135 48.6204 45.1909 48.0447C44.7613 46.9333 43.9501 45.8173 42.0663 44.5L41.0234 45.2554L40.7333 44.8578L41.8163 44.0732V43.0805H42.3098V44.0697C44.2795 45.4392 45.1747 46.6347 45.6514 47.868C45.8917 48.4895 46.022 49.1114 46.1351 49.7494C46.162 49.9011 46.1879 50.0534 46.2141 50.207C46.2918 50.6643 46.3714 51.1325 46.4854 51.6301L55.9217 54.9766C56.169 54.4099 56.3215 53.571 56.3665 52.538C56.4164 51.3906 56.3328 50.0318 56.1189 48.5987C55.6907 45.7289 54.7451 42.5921 53.3355 40.2848C50.9026 36.3023 48.4068 33.8352 45.6493 32.2102Z" fill="black"/>
<path d="M57.0393 57.0923C56.181 59.2373 52.8116 59.9141 49.5137 58.604C46.2158 57.2938 44.2382 54.4928 45.0965 52.3478C45.9549 50.2028 49.3242 49.526 52.6222 50.8361C55.9201 52.1463 57.8977 54.9473 57.0393 57.0923Z" fill="white"/>
<path fill-rule="evenodd" clip-rule="evenodd" d="M54.0938 58.6619C55.3542 58.4087 56.2337 57.778 56.581 56.9102C56.9282 56.0424 56.7255 54.9818 55.9858 53.934C55.2491 52.8906 54.0124 51.9177 52.4394 51.2928C50.8664 50.6679 49.2971 50.5261 48.042 50.7782C46.7817 51.0314 45.9022 51.6621 45.5549 52.5299C45.2076 53.3977 45.4104 54.4583 46.1501 55.5061C46.8868 56.5495 48.1235 57.5224 49.6965 58.1473C51.2695 58.7722 52.8387 58.914 54.0938 58.6619ZM49.5137 58.604C52.8116 59.9141 56.181 59.2373 57.0393 57.0923C57.8977 54.9473 55.9201 52.1463 52.6222 50.8361C49.3242 49.526 45.9549 50.2028 45.0965 52.3478C44.2382 54.4928 46.2158 57.2938 49.5137 58.604Z" fill="black"/>
<path fill-rule="evenodd" clip-rule="evenodd" d="M14.3955 31.6142C16.7707 29.9614 19.6478 29.1871 24.1171 28.5752L24.1843 29.0623C19.7316 29.6719 16.9528 30.4343 14.678 32.0173C12.3994 33.603 10.5999 36.0299 8.15112 40.0384C6.73045 42.3639 5.59036 45.0076 4.9689 47.3672C4.65818 48.5471 4.47883 49.6495 4.45642 50.6015C4.43612 51.4635 4.54495 52.1845 4.78624 52.7265L13.6336 50.5227C13.6094 50.4277 13.5974 50.3336 13.5987 50.2393C13.6014 50.0531 13.6557 49.8849 13.7408 49.7254C13.8741 49.4757 14.1037 49.2165 14.3661 48.9203C14.4187 48.861 14.4726 48.8001 14.5273 48.7375C15.1959 47.9731 16.1556 46.7802 17.0139 44.4036V43.3285H17.5074V44.3212L18.5904 45.1057L18.3003 45.5034L17.3798 44.8366C16.5207 47.1099 15.5709 48.2927 14.8994 49.0605C14.837 49.1319 14.7782 49.1984 14.7231 49.2608C14.4609 49.5576 14.28 49.7623 14.1765 49.9563C14.1189 50.0642 14.0934 50.1559 14.0922 50.2463C14.0908 50.3377 14.1139 50.4467 14.1821 50.5888L14.3125 50.8604L4.52562 53.2982L4.43483 53.1294C4.07838 52.4664 3.93962 51.587 3.9631 50.5899C3.98667 49.5889 4.17432 48.4472 4.49161 47.2425C5.12618 44.8329 6.28618 42.1455 7.72961 39.7827C10.1794 35.7727 12.0241 33.2644 14.3955 31.6142Z" fill="black"/>
<path d="M5.45532 53.5733L10.3878 58.488C11.1497 59.2471 12.385 59.2471 13.147 58.488C13.9089 57.7288 13.9089 56.498 13.147 55.7388L8.21445 50.8242L5.45532 53.5733Z" fill="#E2001A"/>
<path fill-rule="evenodd" clip-rule="evenodd" d="M8.21437 50.4766L13.3213 55.565C14.1796 56.4202 14.1796 57.8067 13.3213 58.6618C12.4631 59.517 11.0716 59.5169 10.2133 58.6618L5.10632 53.5733L8.21437 50.4766ZM5.80417 53.5733L10.5622 58.3141C11.2278 58.9773 12.3069 58.9773 12.9724 58.3141C13.638 57.651 13.638 56.5758 12.9724 55.9127L8.21437 51.1719L5.80417 53.5733Z" fill="black"/>
<path d="M19.61 63.4493L20.7177 65.1064C20.7677 65.1916 20.7159 65.2987 20.6224 65.3182C20.6081 65.3212 20.5932 65.3192 20.5791 65.3153L20.0937 65.1845C20.0852 65.1822 20.0764 65.1811 20.0676 65.1824C20.0061 65.1915 19.9569 65.2396 19.9464 65.3008C19.9451 65.3086 19.9457 65.3166 19.9474 65.3244L20.0576 65.8524C20.0603 65.8654 20.0615 65.8788 20.0586 65.8917C20.0378 65.984 19.931 66.0339 19.8465 65.9847L18.1769 64.8772C18.153 64.8633 18.1338 64.8426 18.1217 64.8178L17.3746 63.4516C17.3678 63.4376 17.3587 63.4249 17.3477 63.4139L12.704 58.7871C12.4849 58.5687 12.4849 58.2147 12.704 57.9963C12.9232 57.7779 13.2785 57.7779 13.4977 57.9963L18.1413 62.6231C18.1524 62.6341 18.1651 62.6432 18.1792 62.6499L19.5503 63.3943C19.5753 63.4064 19.596 63.4255 19.61 63.4493Z" fill="white"/>
<path fill-rule="evenodd" clip-rule="evenodd" d="M12.5297 57.8227C12.8452 57.5083 13.3568 57.5083 13.6723 57.8227L18.3046 62.4382L19.6647 63.1766C19.728 63.2087 19.7812 63.2575 19.8185 63.3178L20.9272 64.9764L20.9309 64.9826C21.0694 65.2188 20.9245 65.5066 20.6732 65.5591C20.6043 65.5734 20.5459 65.5613 20.5148 65.5529L20.2312 65.4764L20.2993 65.8026C20.3052 65.8311 20.3134 65.8839 20.2995 65.9457C20.2436 66.1939 19.9566 66.3337 19.7221 66.1971L19.7159 66.1935L18.0448 65.0851C17.9843 65.0479 17.9353 64.9949 17.9031 64.9318L17.1621 63.5767L12.5297 58.9611C12.2142 58.6467 12.2142 58.1371 12.5297 57.8227ZM20.0296 65.4221C20.0295 65.422 20.0295 65.422 20.0294 65.422ZM13.3234 58.1703C13.2006 58.048 13.0015 58.048 12.8786 58.1703C12.7558 58.2927 12.7558 58.4911 12.8786 58.6135L17.5223 63.2403C17.5511 63.269 17.5751 63.3019 17.5935 63.338L18.3289 64.6828L19.7596 65.6318L19.706 65.3747C19.7004 65.3478 19.6953 65.3073 19.7033 65.2599C19.7316 65.0938 19.8643 64.9643 20.0313 64.9395C20.0842 64.9316 20.129 64.9395 20.1583 64.9474L20.3494 64.9989L19.4148 63.6009L18.0651 62.8681C18.0289 62.8498 17.9958 62.8259 17.967 62.7972L13.3234 58.1703Z" fill="black"/>
<path d="M2.77626 47.2191C1.84206 49.3324 3.71873 52.2015 6.96792 53.6274C10.2171 55.0533 13.6084 54.4961 14.5426 52.3827C15.4768 50.2694 13.6001 47.4002 10.351 45.9743C7.10177 44.5484 3.71046 45.1057 2.77626 47.2191Z" fill="white"/>
<path fill-rule="evenodd" clip-rule="evenodd" d="M3.71673 50.4126C3.01475 49.3394 2.84992 48.2722 3.22785 47.4172C3.60578 46.5623 4.50724 45.963 5.77579 45.7546C7.03907 45.547 8.6023 45.7442 10.1521 46.4243C11.7018 47.1044 12.9031 48.1204 13.6021 49.1892C14.3041 50.2624 14.469 51.3296 14.091 52.1845C13.7131 53.0395 12.8116 53.6387 11.5431 53.8472C10.2798 54.0548 8.71658 53.8576 7.16682 53.1775C5.61706 52.4974 4.4158 51.4814 3.71673 50.4126ZM6.96792 53.6274C3.71873 52.2015 1.84206 49.3324 2.77626 47.2191C3.71046 45.1057 7.10177 44.5484 10.351 45.9743C13.6001 47.4002 15.4768 50.2694 14.5426 52.3827C13.6084 54.4961 10.2171 55.0533 6.96792 53.6274Z" fill="black"/>
<path d="M3.9892 47.4963L5.88344 49.382L3.1858 52.0722L1.29157 50.1864C0.546002 49.4442 0.545486 48.2403 1.29041 47.4974C2.03534 46.7546 3.24363 46.754 3.9892 47.4963Z" fill="#E2001A"/>
<path fill-rule="evenodd" clip-rule="evenodd" d="M3.18606 52.4202L1.1173 50.3607C0.27534 49.5225 0.274757 48.1629 1.116 47.324C1.95724 46.4851 3.32175 46.4845 4.16371 47.3227L6.23248 49.3822L3.18606 52.4202ZM5.53463 49.3825L3.81493 47.6705C3.16576 47.0243 2.11369 47.0247 1.46507 47.6715C0.816452 48.3183 0.816902 49.3666 1.46608 50.0129L3.18577 51.7249L5.53463 49.3825Z" fill="black"/>
<path d="M2.97821 49.1919L1.74833 52.7485C1.34471 53.7172 1.52158 54.3107 2.18694 54.7306C2.85231 55.1504 3.53924 54.4433 3.88618 53.8975C3.58051 54.3784 3.21787 55.4087 3.78785 55.8949C3.9546 56.0372 4.16224 56.1346 4.37622 56.1834C4.90973 56.3051 5.58239 56.0403 5.87066 55.5867C5.52373 56.1326 5.08993 56.8386 5.87066 57.3257C6.56139 57.8677 7.50759 57.3844 7.85453 56.8386L6.32564 59.862C5.98578 60.5033 6.00401 61.0802 6.47405 61.3768C6.86727 61.6249 7.41065 61.5869 7.85453 61.0672L11.3292 56.5868L12.8668 54.299C13.9407 52.701 13.4096 50.5294 11.7181 49.6029L7.67324 47.3873C5.88522 46.4079 3.64288 47.2698 2.97821 49.1919Z" fill="#F8AF78"/>
<path fill-rule="evenodd" clip-rule="evenodd" d="M7.55444 47.603C5.90051 46.6971 3.82635 47.4943 3.21152 49.2723L1.97917 52.836L1.97625 52.843C1.78434 53.3037 1.74685 53.6377 1.80683 53.8887C1.8648 54.1313 2.02377 54.3369 2.319 54.5232C2.52839 54.6553 2.74033 54.6339 2.96875 54.5026C3.20668 54.3658 3.43249 54.1219 3.60512 53.8752C3.6298 53.8399 3.65311 53.8049 3.67495 53.7707L4.6275 52.116C4.6953 51.9982 4.84608 51.9575 4.96428 52.0251C5.08248 52.0926 5.12334 52.2429 5.05554 52.3606L4.10025 54.0201C4.09845 54.0232 4.0966 54.0263 4.09467 54.0293C4.07038 54.0675 4.04458 54.1064 4.01737 54.1456C3.88774 54.3808 3.76659 54.7011 3.73559 55.0047C3.70392 55.3148 3.76888 55.5578 3.94723 55.7084C4.08155 55.8219 4.2519 55.9032 4.43133 55.9441C4.64071 55.9919 4.89083 55.9655 5.12402 55.8728C5.35677 55.7803 5.55041 55.6306 5.66127 55.4571L6.69547 53.7697C6.76649 53.6538 6.91833 53.6172 7.03463 53.688C7.15092 53.7587 7.18763 53.91 7.11661 54.0259L6.08128 55.7152L6.07915 55.7186C6.07458 55.7258 6.06994 55.7329 6.06522 55.74L6.06544 55.7402C5.89421 56.01 5.73122 56.3106 5.68976 56.586C5.66978 56.7187 5.67994 56.8345 5.7225 56.9352C5.76429 57.034 5.84554 57.138 6.00167 57.2354L6.01292 57.2424L6.02335 57.2506C6.27683 57.4495 6.58416 57.4509 6.89738 57.322C7.21515 57.1913 7.49809 56.9393 7.64497 56.7092L8.48282 55.3348C8.55356 55.2188 8.70532 55.1819 8.82178 55.2524C8.93824 55.3228 8.97531 55.4741 8.90457 55.5901L8.06545 56.9665C8.06506 56.9672 8.06467 56.9678 8.06428 56.9684C8.06386 56.9691 8.06345 56.9698 8.06302 56.9704C8.05734 56.9794 8.05152 56.9883 8.04558 56.9973L8.04972 56.9993L6.54497 59.9751L6.54387 59.9771C6.38704 60.2731 6.32625 60.5302 6.34214 60.7296C6.35714 60.9179 6.44 61.0646 6.60611 61.1694C6.75356 61.2625 6.9253 61.3002 7.10131 61.2684C7.27598 61.2368 7.47306 61.1333 7.66304 60.9125L11.1289 56.4434L12.6618 54.1625C13.6552 52.6844 13.1639 50.6756 11.5993 49.8186L7.55444 47.603ZM7.10916 57.7667C7.10138 57.77 7.09358 57.7732 7.08576 57.7765C6.66983 57.9476 6.16354 57.9795 5.72863 57.6451C5.50562 57.5034 5.35314 57.3281 5.26773 57.126C5.18166 56.9223 5.17194 56.7112 5.20176 56.5131C5.20964 56.4607 5.2204 56.4086 5.23356 56.3568C4.94316 56.4585 4.61994 56.4915 4.32121 56.4234C4.07268 56.3667 3.82863 56.2529 3.6281 56.0834C3.2736 55.7839 3.20496 55.3438 3.24467 54.9549C3.24627 54.9393 3.24805 54.9236 3.25 54.908C3.23853 54.9149 3.22699 54.9217 3.21539 54.9284C2.87946 55.1216 2.46385 55.1966 2.05499 54.9386C1.68486 54.705 1.42271 54.404 1.3268 54.0026C1.23335 53.6116 1.3081 53.1668 1.51756 52.6616L2.74499 49.1121C3.45951 47.0458 5.87002 46.1193 7.79215 47.1722L11.8371 49.3878C13.6554 50.3838 14.2264 52.7183 13.0718 54.4361L11.5296 56.7309L8.04625 61.2225L8.04247 61.2269C7.78969 61.5228 7.49455 61.697 7.18937 61.7521C6.88442 61.8072 6.58786 61.7399 6.34209 61.5848C6.03816 61.393 5.87689 61.103 5.85023 60.7685C5.82451 60.4456 5.92407 60.0944 6.10638 59.7497L7.10916 57.7667Z" fill="black"/>
<path d="M45.0461 57.6271L43.5206 60.3265C43.0992 61.0721 42.2769 61.5009 41.4218 61.4211C40.9177 61.374 40.616 60.8396 40.8373 60.3859L42.7325 56.4996C42.9203 56.1147 43.2099 55.7858 43.4857 55.4577C44.4265 54.3384 45.6965 52.0595 49.4829 52.4823C52.3337 52.8006 56.0233 55.7216 54.6082 59.5326C53.476 62.5813 51.2868 62.9504 50.3337 62.7538C49.4917 63.4367 48.4872 63.6544 47.9501 63.6665L46.1716 66.6873C45.8846 67.1748 45.2241 67.2833 44.7952 66.9136C44.4757 66.6381 44.3903 66.1804 44.576 65.8023C46.1409 62.6143 47.7305 57.7309 46.8438 57.3604C45.8953 56.964 45.3904 57.2968 45.0461 57.6271Z" fill="#F8AF78"/>
<path fill-rule="evenodd" clip-rule="evenodd" d="M45.2723 53.193C46.2319 52.4992 47.5578 52.0202 49.5104 52.2382C50.9975 52.4043 52.6886 53.2438 53.8304 54.5354C54.9801 55.836 55.5845 57.612 54.8396 59.6181C53.7062 62.67 51.5163 63.1826 50.3999 63.0154C49.5707 63.6531 48.6654 63.8801 48.0933 63.9093L46.3845 66.8119C46.0194 67.4319 45.1793 67.57 44.6338 67.0997C44.2264 66.7485 44.1214 66.169 44.3543 65.6945C45.1308 64.1126 45.9142 62.1081 46.3922 60.4569C46.6316 59.6296 46.791 58.9026 46.8378 58.3664C46.8613 58.0965 46.8547 57.8913 46.8241 57.7513C46.8089 57.6822 46.7901 57.6391 46.7741 57.6143C46.7597 57.592 46.7503 57.5881 46.7485 57.5873C46.3129 57.4053 46.0055 57.4008 45.7807 57.4593C45.5646 57.5156 45.3956 57.6375 45.243 57.7801L43.7356 60.4473C43.2664 61.2775 42.3509 61.755 41.3988 61.666C40.7232 61.6029 40.3188 60.8868 40.6154 60.2786L42.5106 56.3924C42.6972 56.0098 42.9755 55.6803 43.2269 55.3826C43.2504 55.3548 43.2736 55.3273 43.2965 55.3001C43.393 55.1853 43.496 55.0536 43.6077 54.9109C44.0136 54.392 44.5341 53.7266 45.2723 53.193ZM48.3731 63.3846C48.8732 63.3026 49.5538 63.0696 50.1779 62.5634C50.5785 62.2385 50.957 61.8002 51.2512 61.214C51.3121 61.0926 51.4603 61.0433 51.5822 61.104C51.704 61.1648 51.7534 61.3124 51.6925 61.4339C51.4712 61.8748 51.2055 62.243 50.9166 62.5487C51.9045 62.5013 53.4755 61.8744 54.3768 59.4475C55.047 57.6427 54.5142 56.0527 53.4601 54.8604C52.3983 53.6592 50.8191 52.8791 49.4555 52.7268C47.6216 52.5221 46.4193 52.9711 45.5621 53.5909C44.8867 54.0792 44.4241 54.6694 44.0213 55.1834C43.9019 55.3358 43.7877 55.4814 43.6748 55.6157C43.6533 55.6413 43.632 55.6667 43.6107 55.6919C43.3518 55.999 43.1129 56.2824 42.9545 56.6072L41.0592 60.4935C40.9132 60.7929 41.1123 61.1454 41.4449 61.1765C42.203 61.2473 42.932 60.8671 43.3056 60.206L44.8489 57.4753L44.875 57.4503C45.0599 57.2729 45.3087 57.074 45.656 56.9836C46.0069 56.8923 46.4262 56.9195 46.9392 57.1339C47.1613 57.2267 47.2616 57.4427 47.3062 57.6466C47.3522 57.857 47.3547 58.119 47.3294 58.4089C47.2785 58.9921 47.109 59.7547 46.8663 60.5931C46.3799 62.2732 45.586 64.3044 44.7976 65.9105C44.6593 66.1923 44.725 66.5282 44.9566 66.7279C45.2689 66.9971 45.7499 66.918 45.9588 66.5631L47.7338 63.5482L49.6077 59.9158C49.67 59.7951 49.8188 59.7475 49.94 59.8096C50.0611 59.8716 50.1089 60.0198 50.0466 60.1406L48.3731 63.3846Z" fill="black"/>
<path fill-rule="evenodd" clip-rule="evenodd" d="M23.109 29.2842C23.2365 29.1104 23.3498 28.9559 23.4398 28.8218L23.8895 28.9908C23.8049 29.6231 24.1073 30.2471 24.7007 30.9209C25.2747 31.5727 26.0805 32.2263 26.9519 32.9333C26.9799 32.956 27.0079 32.9787 27.036 33.0015C27.9315 33.7282 28.8832 34.5072 29.6643 35.3722C30.4461 36.238 31.0726 37.2063 31.3003 38.3185C31.4258 38.9316 31.4984 40.207 31.5336 41.8595C31.569 43.5212 31.5666 45.5877 31.5363 47.7992C31.4757 52.2221 31.3032 57.2321 31.0964 60.7563L30.6038 60.7276C30.8101 57.212 30.9824 52.2095 31.0429 47.7925C31.0732 45.584 31.0755 43.5237 31.0403 41.8699C31.0049 40.2069 30.9317 38.9782 30.8168 38.4167C30.6134 37.4236 30.0483 36.5326 29.2975 35.7011C28.5459 34.8688 27.624 34.1127 26.7244 33.3828C26.6904 33.3552 26.6565 33.3277 26.6226 33.3002C25.7664 32.6057 24.9318 31.9288 24.3298 31.2452C23.895 30.7515 23.5605 30.2311 23.4354 29.6755C22.8339 30.4999 22.0434 31.6116 21.8325 32.9955C21.5804 34.6495 22.1634 36.7494 25.2102 39.18L27.0885 35.341L27.5017 39.0208C28.2257 39.2919 28.9077 40.0603 29.4274 41.4954C29.9881 43.0442 30.38 45.4195 30.4222 48.9432C30.4378 50.2428 30.4026 52.6181 30.3653 54.9527C30.3619 55.1683 30.3584 55.3835 30.355 55.5975C30.321 57.7049 30.289 59.6947 30.2949 60.7406L29.8015 60.7434C29.7956 59.6917 29.8277 57.6962 29.8615 55.5918C29.865 55.377 29.8685 55.1611 29.8719 54.9449C29.9093 52.6071 29.9443 50.2401 29.9288 48.9491C29.8869 45.4511 29.4974 43.1377 28.9632 41.6623C28.4266 40.1804 27.764 39.5931 27.2094 39.4427L27.0477 39.3988L26.7872 37.079L25.3868 39.941L25.147 39.756C21.8008 37.1758 21.0509 34.8495 21.3446 32.9217C21.5816 31.3664 22.504 30.109 23.109 29.2842Z" fill="black"/>
<path fill-rule="evenodd" clip-rule="evenodd" d="M37.4957 29.4824C37.353 29.2905 37.228 29.1224 37.127 28.9717L36.6751 29.1082C36.6751 29.6134 36.4261 30.1176 35.9755 30.6532C35.5255 31.1883 34.899 31.7261 34.1927 32.2982C34.0188 32.4392 33.84 32.5821 33.6584 32.7273C32.3833 33.7467 30.9656 34.8801 30.0645 36.2417L30.4765 36.5124C31.3313 35.2206 32.681 34.1404 33.9629 33.1145C34.1452 32.9686 34.3261 32.8239 34.504 32.6797C35.2098 32.1079 35.8701 31.544 36.3537 30.969C36.6817 30.5791 36.9399 30.1708 37.0719 29.7385C37.0827 29.7529 37.0935 29.7675 37.1044 29.7822C37.1465 29.8387 37.1893 29.8964 37.2325 29.9549C37.4267 30.2179 37.6346 30.5068 37.8331 30.8231C38.2305 31.4562 38.5843 32.1893 38.7093 33.0175C38.9488 34.6058 38.3579 36.6443 35.3067 39.0748L33.4284 35.2358L33.0152 38.915C32.3033 39.1773 31.5569 39.9105 31.0375 41.2976L31.4999 41.4695C32.026 40.0645 32.7548 39.4874 33.3075 39.3374L33.4692 39.2936L33.7297 36.9737L35.13 39.8357L35.3699 39.6508C38.7121 37.0737 39.4789 34.812 39.1972 32.9444C39.0585 32.0244 38.6681 31.2261 38.2515 30.5624C38.043 30.2302 37.8264 29.9295 37.63 29.6635C37.5837 29.6009 37.5389 29.5406 37.4957 29.4824Z" fill="black"/>
<path d="M39.7433 15.2044C39.8274 14.199 38.8954 14.1571 38.4188 14.2618C38.0895 16.0493 37.5526 19.6202 38.0404 19.6034C38.6501 19.5825 39.1967 19.4149 39.3018 18.179C39.4069 16.9431 39.6382 16.4613 39.7433 15.2044Z" fill="#F8AF78"/>
<path fill-rule="evenodd" clip-rule="evenodd" d="M39.3904 14.0913C39.0418 13.9392 38.6307 13.9632 38.3658 14.0215L38.2058 14.0566L38.1763 14.2171C38.011 15.1143 37.7932 16.4609 37.6779 17.5839C37.6204 18.1435 37.5872 18.6579 37.601 19.0359C37.6077 19.2217 37.6263 19.3936 37.6678 19.5254C37.6884 19.5906 37.7205 19.666 37.7759 19.7284C37.8376 19.7979 37.9312 19.8529 38.049 19.8488C38.3665 19.8379 38.7304 19.7891 39.0238 19.5308C39.3182 19.2715 39.4928 18.846 39.5478 18.1995C39.5988 17.5992 39.68 17.1822 39.7634 16.7541L39.7649 16.7461C39.8493 16.3124 39.9356 15.8669 39.9893 15.2246C40.0135 14.9354 39.9663 14.6917 39.8528 14.4953C39.7389 14.2982 39.5706 14.1699 39.3904 14.0913ZM39.4251 14.7406C39.4777 14.8315 39.5154 14.9702 39.4976 15.1837C39.4462 15.7982 39.3643 16.2221 39.2805 16.6525L39.2783 16.6637C39.1947 17.0932 39.1094 17.5314 39.0561 18.158C39.006 18.7473 38.8547 19.0236 38.6971 19.1623C38.557 19.2857 38.3736 19.3355 38.1314 19.3524C38.1136 19.2824 38.0997 19.1721 38.0941 19.0181C38.0816 18.6753 38.1118 18.1884 38.1687 17.634C38.2752 16.5973 38.4713 15.3605 38.6306 14.4763C38.8156 14.4571 39.0269 14.4695 39.1925 14.5417C39.2944 14.5862 39.373 14.6504 39.4251 14.7406Z" fill="black"/>
<path d="M20.3239 15.2538C20.2398 14.2483 21.1719 14.2064 21.6484 14.3111C21.9778 16.0986 22.5146 19.6695 22.0269 19.6527C21.4172 19.6318 20.8706 19.4642 20.7654 18.2283C20.6603 16.9924 20.4291 16.5106 20.3239 15.2538Z" fill="#F8AF78"/>
<path fill-rule="evenodd" clip-rule="evenodd" d="M20.6776 14.1401C21.0262 13.9881 21.4373 14.0121 21.7022 14.0703L21.8621 14.1054L21.8917 14.266C22.057 15.1631 22.2748 16.5097 22.3901 17.6328C22.4476 18.1923 22.4808 18.7068 22.467 19.0847C22.4602 19.2706 22.4417 19.4424 22.4002 19.5742C22.3796 19.6394 22.3475 19.7148 22.2921 19.7772C22.2304 19.8467 22.1368 19.9017 22.019 19.8977C21.7015 19.8868 21.3376 19.8379 21.0442 19.5796C20.7498 19.3204 20.5752 18.8948 20.5202 18.2483C20.4692 17.6481 20.388 17.2311 20.3046 16.8029L20.3031 16.7949C20.2187 16.3613 20.1324 15.9158 20.0787 15.2734C20.0545 14.9843 20.1017 14.7406 20.2152 14.5442C20.3291 14.347 20.4974 14.2188 20.6776 14.1401ZM20.6429 14.7894C20.5903 14.8804 20.5526 15.019 20.5704 15.2326C20.6218 15.8471 20.7037 16.2709 20.7875 16.7013L20.7897 16.7125C20.8733 17.142 20.9586 17.5803 21.0119 18.2068C21.062 18.7962 21.2133 19.0724 21.3709 19.2112C21.511 19.3345 21.6944 19.3843 21.9366 19.4012C21.9544 19.3312 21.9683 19.2209 21.9739 19.0669C21.9864 18.7241 21.9562 18.2373 21.8992 17.6828C21.7928 16.6462 21.5967 15.4093 21.4374 14.5251C21.2524 14.5059 21.0411 14.5183 20.8755 14.5905C20.7736 14.635 20.695 14.6992 20.6429 14.7894Z" fill="black"/>
<path d="M22.0255 3.71025C21.0163 6.70575 21.0163 10.3925 21.1635 12.592C21.6681 15.3571 21.8573 23.2124 21.8573 23.2124C22.3678 27.6675 27.6528 29.4758 30.1617 29.8319C35.4176 29.2454 38.1928 25.5586 38.361 23.2124C38.5292 20.8663 39.1388 13.4299 39.1388 10.8743C39.1388 8.82983 38.5642 6.88031 38.2769 6.16111C38.8487 6.64709 39.1879 7.95562 39.286 8.54913C39.471 5.164 37.6672 4.35962 36.7421 4.38056C36.595 2.74665 35.754 1.57359 34.3034 1.0499C33.1429 0.630944 31.5773 0.498276 30.9396 0.484311C32.0664 0.366997 33.2732 0.533192 33.7357 0.630953C30.6663 -0.751588 27.0922 0.421478 24.7165 1.44791C22.816 2.26906 22.1306 4.21997 22.0255 5.09279V3.71025Z" fill="black"/>
<path d="M23.6919 6.87325C22.0436 8.34796 21.8839 13.6603 22.01 16.1321C22.01 16.8373 22.1614 18.5201 23.0192 20.6149C23.8769 22.7096 25.4089 22.6398 25.9204 22.2907C26.6605 21.4025 27.7495 21.0199 28.3172 20.8662C28.4685 21.2182 29.0109 21.1525 29.2632 21.0757C30.121 21.4276 31.0362 21.2224 31.3866 21.0757C31.9248 21.2433 32.2276 21.0059 32.3117 20.8662C33.468 20.971 33.7833 21.9974 35.1709 22.4373C36.5585 22.8772 37.8199 20.4892 38.1353 18.9181C38.4506 17.3471 38.3665 12.1521 37.8409 9.07275C37.4205 6.60932 36.0819 5.9376 35.4652 5.90967C35.0868 6.23086 33.4386 6.84811 29.8729 6.74756C25.4159 6.62188 25.7522 5.02986 23.6919 6.87325Z" fill="#F8AF78"/>
<path d="M23.2596 12.2084C22.9925 12.1107 22.8485 11.7808 22.7935 11.5667C22.7803 11.5154 22.8029 11.4621 22.8467 11.4323C24.7598 10.1345 27.1304 10.6602 28.1533 11.1162C28.1957 11.1351 28.2248 11.1747 28.2278 11.221C28.2612 11.7317 27.8847 12.0555 27.6351 12.1841C27.5942 12.2052 27.5452 12.1993 27.5063 12.1746C25.8286 11.1093 23.5535 12.136 23.2994 12.2109C23.286 12.2149 23.2727 12.2132 23.2596 12.2084Z" fill="black"/>
<path d="M37.101 12.2172C37.3681 12.1195 37.5121 11.7896 37.5671 11.5755C37.5803 11.5242 37.5577 11.4709 37.5139 11.4411C35.6008 10.1433 33.2302 10.6689 32.2073 11.125C32.1649 11.1439 32.1358 11.1835 32.1328 11.2298C32.0994 11.7405 32.4759 12.0643 32.7255 12.1929C32.7664 12.214 32.8154 12.2081 32.8543 12.1834C34.532 11.1181 36.8071 12.1447 37.0612 12.2197C37.0746 12.2237 37.0879 12.222 37.101 12.2172Z" fill="black"/>
<path fill-rule="evenodd" clip-rule="evenodd" d="M20.5681 14.1418V12.7174C21.4301 12.5359 23.7553 12.2272 26.1604 12.4451C27.7192 12.5863 28.2098 12.7669 28.5933 12.9081C28.9496 13.0392 29.2135 13.1364 30.155 13.1364C31.0965 13.1364 31.3604 13.0392 31.7166 12.9081C32.1002 12.7669 32.5908 12.5863 34.1495 12.4451C36.5546 12.2272 38.8799 12.5359 39.7418 12.7174V14.1418C39.4895 14.4142 38.9597 15.0677 38.8588 15.5034C38.7327 16.0481 38.165 18.3314 34.5279 18.1428C33.6659 18.1219 31.8327 17.8035 31.3954 16.6975C31.2912 16.434 31.2015 16.194 31.1208 15.9782C30.7782 15.0613 30.5974 14.5778 30.155 14.5608C29.7125 14.5778 29.5318 15.0613 29.1891 15.9782C29.1084 16.194 29.0187 16.434 28.9146 16.6975C28.4773 17.8035 26.644 18.1219 25.782 18.1428C22.1449 18.3314 21.5773 16.0481 21.4511 15.5034C21.3502 15.0677 20.8204 14.4142 20.5681 14.1418ZM22.061 15.7135C21.8928 14.9426 21.9909 14.289 22.061 13.9748C22.4515 12.7147 24.7999 12.8808 26.399 12.9939C26.6076 13.0086 26.8034 13.0225 26.9805 13.0322C28.7122 13.1267 29.146 14.4357 28.7255 15.7135C28.305 16.9913 27.7374 17.9758 25.1304 17.7873C22.5235 17.5987 22.2712 16.677 22.061 15.7135ZM38.3265 13.9748C38.3966 14.289 38.4947 14.9426 38.3265 15.7135C38.1162 16.677 37.864 17.5987 35.257 17.7873C32.6501 17.9758 32.0824 16.9913 31.6619 15.7135C31.2415 14.4357 31.6752 13.1267 33.4069 13.0322C33.584 13.0225 33.7798 13.0086 33.9884 12.9939C35.5876 12.8808 37.9359 12.7147 38.3265 13.9748Z" fill="black"/>
<path d="M27.5834 22.829C28.8924 23.1366 29.8646 23.1855 30.1565 23.1855C30.4488 23.1855 31.4229 23.1365 32.7342 22.8279C32.7608 22.8216 32.7866 22.8414 32.7853 22.8686C32.749 23.6154 32.0748 25.0358 30.1565 25.0358C28.2425 25.0358 27.567 23.6218 27.528 22.8736C27.5265 22.8439 27.5545 22.8222 27.5834 22.829Z" fill="#FF1010"/>
<path d="M27.5834 22.829C28.8924 23.1366 29.8646 23.1855 30.1565 23.1855C30.4488 23.1855 31.4229 23.1365 32.7342 22.8279C32.7608 22.8216 32.7866 22.8414 32.7853 22.8686C32.7755 23.0696 32.7195 23.3195 32.6055 23.5773C32.6017 23.5859 32.5957 23.5929 32.5875 23.5975C32.3713 23.7183 31.6062 23.9466 30.1565 23.9466C28.7068 23.9466 27.9417 23.7183 27.7256 23.5975C27.7174 23.5929 27.7113 23.5859 27.7076 23.5773C27.5945 23.3217 27.5385 23.074 27.528 22.8739C27.5265 22.8442 27.5545 22.8222 27.5834 22.829Z" fill="white"/>
<ellipse cx="25.5292" cy="14.9604" rx="0.861976" ry="0.858851" fill="black"/>
<ellipse cx="25.7605" cy="14.7711" rx="0.294333" ry="0.293605" fill="white"/>
<ellipse cx="34.8218" cy="14.9594" rx="0.861976" ry="0.858851" fill="black"/>
<ellipse cx="35.053" cy="14.7711" rx="0.294333" ry="0.293605" fill="white"/>
<path d="M38.8754 62.0181C39.3012 62.0181 39.6696 62.3144 39.7608 62.7303L41.0773 68.7331C41.2013 69.2985 40.7708 69.8337 40.1919 69.8337L21.2202 69.8337C20.6484 69.8337 20.2194 69.3107 20.3313 68.7499L21.5292 62.7471C21.6138 62.3232 21.9859 62.0181 22.4182 62.0181L38.8754 62.0181Z" fill="black"/>
<path d="M38.9296 62.6309C39.1362 62.6309 39.315 62.7747 39.3593 62.9766L40.6113 68.6885C40.6715 68.9629 40.4625 69.2226 40.1816 69.2226L21.3945 69.2226C21.1166 69.2226 20.9083 68.9682 20.9632 68.6958L22.1139 62.9839C22.1553 62.7786 22.3357 62.6309 22.5451 62.6309L38.9296 62.6309Z" fill="white"/>
<path d="M37.6283 62.8984C37.7619 62.8984 37.8773 62.9917 37.9053 63.1224L39.0664 68.5414C39.1041 68.7177 38.9697 68.884 38.7894 68.884L23.3939 68.884C23.2148 68.884 23.0807 68.72 23.1163 68.5445L24.2146 63.1254C24.2413 62.9934 24.3574 62.8984 24.4922 62.8984L37.6283 62.8984Z" fill="black"/>
<path d="M22.6015 65.1172C22.8211 65.1172 23.0001 65.2952 23.0001 65.5148V65.5148C23.0001 65.7344 22.8211 65.9124 22.6015 65.9124V65.9124C22.3819 65.9124 22.2029 65.7344 22.2029 65.5148V65.5148C22.2029 65.2952 22.3819 65.1172 22.6015 65.1172V65.1172Z" fill="black"/>
<rect x="65.579" y="45.1006" width="136.421" height="11.951" rx="5.97551" fill="#276CAA"/>
<path d="M77.7875 54.3033C77.1753 54.3033 76.6541 54.1644 76.2238 53.8866C75.7996 53.6088 75.5026 53.2284 75.3329 52.7453L76.2329 52.2199C76.4875 52.9325 77.0147 53.2887 77.8148 53.2887C78.2087 53.2887 78.5026 53.2133 78.6966 53.0623C78.8966 52.9053 78.9966 52.703 78.9966 52.4554C78.9966 52.1957 78.8905 51.9995 78.6784 51.8666C78.4663 51.7277 78.0905 51.5768 77.5511 51.4137C77.2481 51.3231 77.0026 51.2386 76.8147 51.1601C76.6269 51.0816 76.4268 50.9729 76.2147 50.834C76.0087 50.6891 75.8541 50.5109 75.7511 50.2996C75.648 50.0882 75.5965 49.8406 75.5965 49.5568C75.5965 48.9952 75.7965 48.5513 76.1965 48.2252C76.5965 47.8931 77.0784 47.7271 77.642 47.7271C78.1511 47.7271 78.5966 47.8508 78.9784 48.0984C79.3602 48.346 79.6542 48.6872 79.8602 49.122L78.9784 49.6293C78.7117 49.0375 78.2663 48.7416 77.642 48.7416C77.339 48.7416 77.0966 48.814 76.9147 48.959C76.7329 49.0978 76.642 49.2881 76.642 49.5296C76.642 49.7651 76.7329 49.9523 76.9147 50.0912C77.1026 50.2241 77.439 50.366 77.9238 50.517C78.1663 50.5955 78.342 50.6558 78.4511 50.6981C78.5663 50.7343 78.7239 50.7947 78.9239 50.8793C79.1299 50.9638 79.2845 51.0484 79.3875 51.1329C79.4905 51.2174 79.5996 51.3231 79.7148 51.4499C79.836 51.5768 79.9209 51.7217 79.9693 51.8847C80.0178 52.0478 80.0421 52.232 80.0421 52.4373C80.0421 53.011 79.833 53.4669 79.4148 53.8051C79.0027 54.1372 78.4602 54.3033 77.7875 54.3033Z" fill="white"/>
<path d="M85.5803 53.1891H88.3986V54.1855H84.5348V47.8448H88.3531V48.8412H85.5803V50.4898H88.1258V51.4771H85.5803V53.1891Z" fill="white"/>
<path d="M96.6194 54.1855L95.2739 51.8757H94.0375V54.1855H92.992V47.8448H95.5375C96.1072 47.8448 96.5891 48.0441 96.983 48.4426C97.383 48.8352 97.583 49.3152 97.583 49.8829C97.583 50.2875 97.4649 50.6589 97.2285 50.997C96.9982 51.3292 96.6951 51.5707 96.3194 51.7217L97.7649 54.1855H96.6194ZM94.0375 48.8231V50.9427H95.5375C95.8163 50.9427 96.0527 50.84 96.2466 50.6347C96.4406 50.4294 96.5376 50.1788 96.5376 49.8829C96.5376 49.587 96.4406 49.3364 96.2466 49.1311C96.0527 48.9257 95.8163 48.8231 95.5375 48.8231H94.0375Z" fill="white"/>
<path d="M103.733 54.1855L101.524 47.8448H102.67L104.361 52.9264L106.061 47.8448H107.197L104.988 54.1855H103.733Z" fill="white"/>
<path d="M111.513 47.8448H112.559V54.1855H111.513V47.8448Z" fill="white"/>
<path d="M120.476 54.3033C119.519 54.3033 118.725 53.9892 118.094 53.3612C117.464 52.7271 117.149 51.9451 117.149 51.0152C117.149 50.0852 117.464 49.3062 118.094 48.6782C118.725 48.0441 119.519 47.7271 120.476 47.7271C121.052 47.7271 121.582 47.8629 122.067 48.1347C122.558 48.4064 122.94 48.7748 123.213 49.2398L122.303 49.7651C122.134 49.4511 121.885 49.2035 121.558 49.0224C121.237 48.8352 120.876 48.7416 120.476 48.7416C119.797 48.7416 119.246 48.9559 118.822 49.3847C118.403 49.8134 118.194 50.3569 118.194 51.0152C118.194 51.6734 118.403 52.2169 118.822 52.6456C119.246 53.0744 119.797 53.2887 120.476 53.2887C120.876 53.2887 121.24 53.1982 121.567 53.017C121.894 52.8298 122.14 52.5792 122.303 52.2652L123.213 52.7815C122.946 53.2465 122.567 53.6179 122.076 53.8956C121.591 54.1674 121.058 54.3033 120.476 54.3033Z" fill="white"/>
<path d="M128.763 53.1891H131.581V54.1855H127.718V47.8448H131.536V48.8412H128.763V50.4898H131.308V51.4771H128.763V53.1891Z" fill="white"/>
<path d="M145.093 54.3033C144.135 54.3033 143.342 53.9892 142.711 53.3612C142.081 52.7271 141.766 51.9451 141.766 51.0152C141.766 50.0852 142.081 49.3062 142.711 48.6782C143.342 48.0441 144.135 47.7271 145.093 47.7271C145.669 47.7271 146.199 47.8629 146.684 48.1347C147.175 48.4064 147.557 48.7748 147.829 49.2398L146.92 49.7651C146.751 49.4511 146.502 49.2035 146.175 49.0224C145.854 48.8352 145.493 48.7416 145.093 48.7416C144.414 48.7416 143.863 48.9559 143.438 49.3847C143.02 49.8134 142.811 50.3569 142.811 51.0152C142.811 51.6734 143.02 52.2169 143.438 52.6456C143.863 53.0744 144.414 53.2887 145.093 53.2887C145.493 53.2887 145.857 53.1982 146.184 53.017C146.511 52.8298 146.757 52.5792 146.92 52.2652L147.829 52.7815C147.563 53.2465 147.184 53.6179 146.693 53.8956C146.208 54.1674 145.675 54.3033 145.093 54.3033Z" fill="white"/>
<path d="M153.38 53.1891H156.198V54.1855H152.334V47.8448H156.153V48.8412H153.38V50.4898H155.925V51.4771H153.38V53.1891Z" fill="white"/>
<path d="M164.61 47.8448H165.655V54.1855H164.837L161.837 49.8829V54.1855H160.792V47.8448H161.61L164.61 52.1474V47.8448Z" fill="white"/>
<path d="M174.699 47.8448V48.8412H172.908V54.1855H171.863V48.8412H170.063V47.8448H174.699Z" fill="white"/>
<path d="M180.154 53.1891H182.972V54.1855H179.109V47.8448H182.927V48.8412H180.154V50.4898H182.7V51.4771H180.154V53.1891Z" fill="white"/>
<path d="M191.193 54.1855L189.848 51.8757H188.611V54.1855H187.566V47.8448H190.111C190.681 47.8448 191.163 48.0441 191.557 48.4426C191.957 48.8352 192.157 49.3152 192.157 49.8829C192.157 50.2875 192.039 50.6589 191.802 50.997C191.572 51.3292 191.269 51.5707 190.893 51.7217L192.339 54.1855H191.193ZM188.611 48.8231V50.9427H190.111C190.39 50.9427 190.627 50.84 190.821 50.6347C191.015 50.4294 191.111 50.1788 191.111 49.8829C191.111 49.587 191.015 49.3364 190.821 49.1311C190.627 48.9257 190.39 48.8231 190.111 48.8231H188.611Z" fill="white"/>
<path d="M72.2118 60.6V61.656H69.7278V69H68.6238V61.656H66.1518V60.6H72.2118ZM81.2598 67.884C80.4198 68.732 79.3918 69.156 78.1758 69.156C76.9598 69.156 75.9318 68.732 75.0918 67.884C74.2518 67.036 73.8318 66.008 73.8318 64.8C73.8318 63.584 74.2518 62.556 75.0918 61.716C75.9318 60.868 76.9598 60.444 78.1758 60.444C79.3918 60.444 80.4198 60.868 81.2598 61.716C82.1078 62.556 82.5318 63.584 82.5318 64.8C82.5318 66.008 82.1078 67.036 81.2598 67.884ZM75.8598 67.128C76.4838 67.752 77.2558 68.064 78.1758 68.064C79.0958 68.064 79.8638 67.752 80.4798 67.128C81.1038 66.496 81.4158 65.72 81.4158 64.8C81.4158 63.872 81.1038 63.096 80.4798 62.472C79.8638 61.84 79.0958 61.524 78.1758 61.524C77.2558 61.524 76.4838 61.84 75.8598 62.472C75.2438 63.096 74.9358 63.872 74.9358 64.8C74.9358 65.72 75.2438 66.496 75.8598 67.128ZM90.209 60.6V61.656H87.725V69H86.621V61.656H84.149V60.6H90.209ZM92.7534 60.6H93.8694V69H92.7534V60.6ZM106.531 69L104.647 65.784H102.667V69H101.551V60.6H104.911C105.631 60.6 106.247 60.856 106.759 61.368C107.271 61.872 107.527 62.484 107.527 63.204C107.527 63.748 107.363 64.244 107.035 64.692C106.715 65.14 106.299 65.456 105.787 65.64L107.767 69H106.531ZM102.667 61.644V64.776H104.911C105.327 64.776 105.679 64.624 105.967 64.32C106.263 64.008 106.411 63.636 106.411 63.204C106.411 62.772 106.263 62.404 105.967 62.1C105.679 61.796 105.327 61.644 104.911 61.644H102.667ZM111.443 67.944H115.343V69H110.327V60.6H115.283V61.656H111.443V64.236H114.983V65.28H111.443V67.944ZM121.179 60.6C121.955 60.6 122.599 60.86 123.111 61.38C123.631 61.892 123.891 62.532 123.891 63.3C123.891 64.06 123.631 64.7 123.111 65.22C122.599 65.74 121.955 66 121.179 66H119.247V69H118.131V60.6H121.179ZM121.179 64.956C121.643 64.956 122.027 64.8 122.331 64.488C122.635 64.168 122.787 63.772 122.787 63.3C122.787 62.82 122.635 62.424 122.331 62.112C122.027 61.8 121.643 61.644 121.179 61.644H119.247V64.956H121.179ZM131.325 69L130.641 67.116H126.861L126.177 69H124.989L128.121 60.6H129.381L132.513 69H131.325ZM127.245 66.072H130.257L128.745 61.932L127.245 66.072ZM139.924 69L138.04 65.784H136.06V69H134.944V60.6H138.304C139.024 60.6 139.64 60.856 140.152 61.368C140.664 61.872 140.92 62.484 140.92 63.204C140.92 63.748 140.756 64.244 140.428 64.692C140.108 65.14 139.692 65.456 139.18 65.64L141.16 69H139.924ZM136.06 61.644V64.776H138.304C138.72 64.776 139.072 64.624 139.36 64.32C139.656 64.008 139.804 63.636 139.804 63.204C139.804 62.772 139.656 62.404 139.36 62.1C139.072 61.796 138.72 61.644 138.304 61.644H136.06ZM149.252 69L148.568 67.116H144.788L144.104 69H142.916L146.048 60.6H147.308L150.44 69H149.252ZM145.172 66.072H148.184L146.672 61.932L145.172 66.072ZM158.427 67.944H162.051V69H157.311V60.6H158.427V67.944ZM170.377 69L169.693 67.116H165.913L165.229 69H164.041L167.173 60.6H168.433L171.565 69H170.377ZM166.297 66.072H169.309L167.797 61.932L166.297 66.072ZM183.656 60.6H184.772V69H183.872L179.552 62.724V69H178.436V60.6H179.336L183.656 66.864V60.6ZM194.993 67.884C194.153 68.732 193.125 69.156 191.909 69.156C190.693 69.156 189.665 68.732 188.825 67.884C187.985 67.036 187.565 66.008 187.565 64.8C187.565 63.584 187.985 62.556 188.825 61.716C189.665 60.868 190.693 60.444 191.909 60.444C193.125 60.444 194.153 60.868 194.993 61.716C195.841 62.556 196.265 63.584 196.265 64.8C196.265 66.008 195.841 67.036 194.993 67.884ZM189.593 67.128C190.217 67.752 190.989 68.064 191.909 68.064C192.829 68.064 193.597 67.752 194.213 67.128C194.837 66.496 195.149 65.72 195.149 64.8C195.149 63.872 194.837 63.096 194.213 62.472C193.597 61.84 192.829 61.524 191.909 61.524C190.989 61.524 190.217 61.84 189.593 62.472C188.977 63.096 188.669 63.872 188.669 64.8C188.669 65.72 188.977 66.496 189.593 67.128ZM199.046 60.6H200.162V69H199.046V60.6Z" fill="#276CAA"/>
</svg>
