<svg width="226" height="79" viewBox="0 0 226 79" fill="none" xmlns="http://www.w3.org/2000/svg">
<path d="M48.0403 27.1909H60.5284V35.0801H48.0403V27.1909Z" fill="#F8AF78"/>
<path fill-rule="evenodd" clip-rule="evenodd" d="M60.035 27.7011H48.5337V34.5699H60.035V27.7011ZM48.0403 27.1909V35.0801H60.5284V27.1909H48.0403Z" fill="black"/>
<path d="M54.2493 33.8685C58.4036 33.8685 60.3392 31.9702 60.7877 31.021C67.4971 31.021 74.7273 35.6261 78.6852 44.5863C80.0974 48.0936 80.3718 52.1865 80.677 57.1557L79.5302 58.8431L68.9708 59.2601C69.0857 58.1783 69.3613 55.8168 69.545 55.0252C69.7288 54.2337 69.663 54.2068 70.2499 53.9694C70.0203 53.3097 69.6642 51.3588 69.3273 50.6306C68.9062 49.7203 68.5797 48.5014 67.393 47.4723C66.4436 46.6491 66.1552 46.5225 66.1297 46.562L65.9 47.037L64.5591 62.532L60.9133 63.3094L57.9362 63.5568C55.4815 63.7607 53.0152 63.7862 50.5568 63.6331L45.3628 63.3094L42.119 62.6107L41.3254 47.2429V46.4204L39.1781 50.8888L38.2095 52.3351C38.5574 53.2529 38.8202 54.4349 38.3728 55.1985C37.9254 55.962 37.8544 56.1602 37.542 56.1823C37.292 56.1999 34.9225 57.7516 34.3461 58.8506L33.7758 60.0292L29.4485 57.6661C28.7483 55.8341 28.3449 54.0521 28.1968 52.3351C27.8672 51.5613 27.2598 49.8527 27.4673 49.2093C27.6747 48.566 28.8745 47.9762 29.4485 47.7618L30.6304 44.5449L33.7936 39.13L37.1986 34.9471C40.4389 32.7292 44.1665 31.3398 47.7109 31.021C48.1594 31.9702 50.095 33.8685 54.2493 33.8685Z" fill="white"/>
<path fill-rule="evenodd" clip-rule="evenodd" d="M66.3149 46.5265L64.7163 62.6798L64.2259 62.628L65.8245 46.4746L66.3149 46.5265ZM41.5023 47.1902L42.0953 62.304L41.6027 62.3246L41.0098 47.2109L41.5023 47.1902Z" fill="black"/>
<path fill-rule="evenodd" clip-rule="evenodd" d="M47.3994 63.5949L34.6664 61.3948L34.7476 60.8921L47.4807 63.0922C52.4023 63.9426 57.433 63.854 62.3238 62.831L71.585 60.8937L71.6828 61.3932L62.4215 63.3305C57.4717 64.3659 52.3804 64.4555 47.3994 63.5949Z" fill="black"/>
<path fill-rule="evenodd" clip-rule="evenodd" d="M69.6493 34.177C66.8886 32.4888 63.8474 31.6651 60.3009 31.0335L60.3847 30.5308C63.9512 31.1659 67.0625 32.0024 69.9005 33.7379C72.7419 35.4754 75.2914 38.1025 77.757 42.2905C79.2116 44.7611 80.1726 48.0874 80.607 51.1078C80.8245 52.6198 80.9111 54.0631 80.8595 55.2926C80.8082 56.514 80.6196 57.5541 80.265 58.2386L80.1647 58.432L70.0667 54.7159L70.0357 54.5811C69.901 53.9963 69.8107 53.445 69.7258 52.9265C69.7001 52.7699 69.675 52.6163 69.6492 52.4656C69.5373 51.8112 69.4135 51.2054 69.1909 50.608C68.7613 49.4547 67.9501 48.2967 66.0663 46.9298L65.0234 47.7137L64.7333 47.301L65.8163 46.4869V45.4568H66.3098V46.4832C68.2795 47.9043 69.1747 49.1449 69.6514 50.4246C69.8917 51.0695 70.022 51.7149 70.1351 52.3769C70.162 52.5343 70.1879 52.6924 70.2141 52.8517C70.2918 53.3262 70.3714 53.8121 70.4854 54.3284L79.9217 57.801C80.169 57.2129 80.3215 56.3424 80.3665 55.2705C80.4164 54.0799 80.3328 52.6699 80.1189 51.1828C79.6907 48.205 78.7451 44.95 77.3355 42.5558C74.9026 38.4232 72.4068 35.8632 69.6493 34.177Z" fill="black"/>
<path d="M81.0393 59.9959C80.181 62.2217 76.8116 62.924 73.5137 61.5645C70.2158 60.205 68.2382 57.2985 69.0965 55.0727C69.9549 52.8469 73.3242 52.1446 76.6221 53.5041C79.9201 54.8636 81.8977 57.7701 81.0393 59.9959Z" fill="white"/>
<path fill-rule="evenodd" clip-rule="evenodd" d="M78.0938 61.6246C79.3541 61.3619 80.2337 60.7074 80.581 59.807C80.9282 58.9065 80.7255 57.8059 79.9858 56.7187C79.2491 55.636 78.0124 54.6264 76.4394 53.978C74.8664 53.3295 73.2971 53.1824 72.042 53.444C70.7817 53.7067 69.9022 54.3612 69.5549 55.2617C69.2076 56.1621 69.4104 57.2628 70.1501 58.3499C70.8868 59.4326 72.1235 60.4422 73.6965 61.0906C75.2695 61.7391 76.8387 61.8862 78.0938 61.6246ZM73.5137 61.5645C76.8116 62.924 80.181 62.2217 81.0393 59.9959C81.8977 57.7701 79.9201 54.8636 76.6221 53.5041C73.3242 52.1446 69.9549 52.8469 69.0965 55.0727C68.2382 57.2985 70.2158 60.205 73.5137 61.5645Z" fill="black"/>
<path fill-rule="evenodd" clip-rule="evenodd" d="M38.3955 33.5583C40.7707 31.8432 43.6478 31.0397 48.1171 30.4048L48.1843 30.9102C43.7316 31.5428 40.9528 32.3339 38.678 33.9766C36.3994 35.622 34.5999 38.1403 32.1511 42.2997C30.7304 44.7128 29.5904 47.4561 28.9689 49.9047C28.6582 51.129 28.4788 52.2729 28.4564 53.2607C28.4361 54.1552 28.545 54.9034 28.7862 55.4658L37.6336 53.179C37.6094 53.0805 37.5974 52.9828 37.5987 52.8849C37.6014 52.6917 37.6557 52.5171 37.7408 52.3517C37.8741 52.0925 38.1037 51.8236 38.3661 51.5162C38.4187 51.4546 38.4726 51.3915 38.5273 51.3266C39.1959 50.5333 40.1556 49.2955 41.0139 46.8294V45.7138H41.5074V46.7439L42.5904 47.5579L42.3003 47.9706L41.3798 47.2787C40.5207 49.6377 39.5709 50.865 38.8994 51.6618C38.837 51.7358 38.7782 51.8048 38.7231 51.8695C38.4609 52.1775 38.28 52.39 38.1765 52.5913C38.1189 52.7032 38.0934 52.7983 38.0922 52.8922C38.0908 52.987 38.1139 53.1002 38.1821 53.2476L38.3125 53.5294L28.5256 56.0591L28.4348 55.8838C28.0784 55.1959 27.9396 54.2834 27.9631 53.2488C27.9867 52.2101 28.1743 51.0253 28.4916 49.7752C29.1262 47.2749 30.2862 44.4862 31.7296 42.0345C34.1794 37.8734 36.0241 35.2706 38.3955 33.5583Z" fill="black"/>
<path d="M30.7214 57.2689L33.3846 60.7108C33.796 61.2424 34.7471 61.0348 35.509 60.2471C36.2709 59.4593 36.5551 58.3898 36.1437 57.8581L33.4805 54.4162L30.7214 57.2689Z" fill="#E2001A"/>
<path fill-rule="evenodd" clip-rule="evenodd" d="M33.5373 54.0973L36.2946 57.6609C36.758 58.2598 36.4379 59.4647 35.5797 60.3521C34.7214 61.2394 33.65 61.4733 33.1866 60.8744L30.4292 57.3107L33.5373 54.0973ZM30.9665 57.1934L33.5355 60.5136C33.8949 60.978 34.7257 60.7967 35.3913 60.1086C36.0568 59.4204 36.3051 58.4861 35.9457 58.0217L33.3767 54.7015L30.9665 57.1934Z" fill="black"/>
<path d="M42.5728 65.8347L43.043 67.0887C43.0618 67.1543 42.9973 67.2561 42.9208 67.2887C42.909 67.2938 42.8981 67.2945 42.888 67.2935L42.5446 67.2614C42.5386 67.2608 42.532 67.2613 42.525 67.2639C42.4755 67.2822 42.4265 67.3322 42.4044 67.3872C42.4015 67.3942 42.4002 67.4011 42.3996 67.4076L42.3626 67.8479C42.3617 67.8587 42.3595 67.8702 42.3543 67.8819C42.317 67.9656 42.2233 68.0269 42.1695 67.9983L41.1398 67.3165C41.1246 67.3084 41.1146 67.2937 41.1111 67.2741L40.8513 66.2123C40.8493 66.2013 40.8452 66.1918 40.8393 66.1841L38.3323 62.9435C38.214 62.7906 38.2957 62.4829 38.5149 62.2563C38.734 62.0297 39.0076 61.97 39.1259 62.1229L41.6328 65.3635C41.6388 65.3712 41.6465 65.3769 41.6557 65.3805L42.5395 65.7969C42.5559 65.8032 42.5675 65.8163 42.5728 65.8347Z" fill="white"/>
<path fill-rule="evenodd" clip-rule="evenodd" d="M38.421 62.1344C38.7364 61.8081 39.1303 61.7222 39.3006 61.9423L41.8014 65.175L42.6781 65.5881C42.7194 65.6054 42.7491 65.6389 42.7639 65.685L43.2346 66.9401L43.2359 66.9449C43.2881 67.1269 43.1101 67.4013 42.9045 67.4891C42.8481 67.5132 42.806 67.5124 42.784 67.5104L42.5833 67.4916L42.5604 67.7636C42.5584 67.7874 42.5525 67.8319 42.5275 67.888C42.4272 68.113 42.174 68.2828 42.025 68.2035L42.021 68.2014L40.9904 67.5189C40.9524 67.4968 40.9269 67.459 40.9167 67.4095L40.659 66.3564L38.1582 63.1237C37.9878 62.9036 38.1055 62.4606 38.421 62.1344ZM42.4406 67.4782C42.4406 67.4782 42.4405 67.4782 42.4405 67.4782L42.4406 67.4782ZM38.9517 62.3031C38.8854 62.2174 38.7321 62.2509 38.6093 62.3779C38.4865 62.5048 38.4407 62.6773 38.507 62.763L41.014 66.0035C41.0295 66.0236 41.0404 66.0482 41.0462 66.0765L41.302 67.1216L42.1844 67.7059L42.2024 67.4914C42.2043 67.4691 42.2097 67.4347 42.2269 67.3921C42.287 67.243 42.4191 67.1082 42.5534 67.0585C42.5959 67.0428 42.6285 67.0422 42.6493 67.0441L42.7845 67.0568L42.3878 65.9988L41.5178 65.5889C41.4942 65.579 41.4742 65.5638 41.4587 65.5437L38.9517 62.3031Z" fill="black"/>
<path d="M26.7763 49.7507C25.8421 51.9437 27.7187 54.9209 30.9679 56.4005C34.2171 57.8801 37.6084 57.3018 38.5426 55.1089C39.4768 52.9159 37.6001 49.9387 34.351 48.4591C31.1018 46.9795 27.7105 47.5578 26.7763 49.7507Z" fill="white"/>
<path fill-rule="evenodd" clip-rule="evenodd" d="M27.7167 53.0646C27.0147 51.9509 26.8499 50.8435 27.2279 49.9564C27.6058 49.0692 28.5072 48.4474 29.7758 48.2311C31.0391 48.0157 32.6023 48.2203 34.1521 48.926C35.7018 49.6317 36.9031 50.686 37.6021 51.795C38.3041 52.9087 38.469 54.0161 38.091 54.9032C37.7131 55.7904 36.8116 56.4122 35.5431 56.6285C34.2798 56.8439 32.7166 56.6393 31.1668 55.9336C29.6171 55.2279 28.4158 54.1736 27.7167 53.0646ZM30.9679 56.4005C27.7187 54.9209 25.8421 51.9437 26.7763 49.7507C27.7105 47.5578 31.1018 46.9795 34.351 48.4591C37.6001 49.9387 39.4768 52.9159 38.5426 55.1089C37.6084 57.3018 34.2171 57.8801 30.9679 56.4005Z" fill="black"/>
<path d="M27.9892 50.0382L29.8834 51.995L27.1858 54.7865L25.2916 52.8297C24.546 52.0595 24.5455 50.8103 25.2904 50.0394C26.0353 49.2686 27.2436 49.268 27.9892 50.0382Z" fill="#E2001A"/>
<path fill-rule="evenodd" clip-rule="evenodd" d="M27.1861 55.1479L25.1173 53.0108C24.2753 52.1411 24.2748 50.7303 25.116 49.8598C25.9572 48.9893 27.3217 48.9887 28.1637 49.8584L30.2325 51.9955L27.1861 55.1479ZM29.5346 51.9958L27.8149 50.2193C27.1658 49.5487 26.1137 49.5492 25.4651 50.2204C24.8165 50.8916 24.8169 51.9793 25.4661 52.6499L27.1858 54.4264L29.5346 51.9958Z" fill="black"/>
<path d="M26.9782 51.7981L25.7483 55.4887C25.3447 56.4939 25.5216 57.1098 26.1869 57.5454C26.8523 57.9811 27.5392 57.2474 27.8862 56.681C27.5805 57.18 27.2179 58.2491 27.7879 58.7537C27.9546 58.9013 28.1622 59.0024 28.3762 59.053C28.9097 59.1793 29.5824 58.9045 29.8707 58.4339C29.5237 59.0003 29.0899 59.7328 29.8707 60.2384C30.5614 60.8007 31.5076 60.2992 31.8545 59.7328L30.3256 62.8702C29.9858 63.5356 30.004 64.1343 30.4741 64.442C30.8673 64.6995 31.4106 64.66 31.8545 64.1208L35.3292 59.4716L36.8668 57.0976C37.9407 55.4394 37.4096 53.186 35.7181 52.2246L31.6732 49.9256C29.8852 48.9093 27.6429 49.8036 26.9782 51.7981Z" fill="#F8AF78"/>
<path fill-rule="evenodd" clip-rule="evenodd" d="M31.5544 50.1489C29.9005 49.2089 27.8263 50.0361 27.2115 51.881L25.9792 55.579L25.9763 55.5863C25.7843 56.0643 25.7469 56.4109 25.8068 56.6714C25.8648 56.9231 26.0238 57.1364 26.319 57.3298C26.5284 57.4668 26.7403 57.4446 26.9687 57.3084C27.2067 57.1664 27.4325 56.9134 27.6051 56.6573C27.6298 56.6207 27.6531 56.5844 27.675 56.5489L28.6275 54.8319C28.6953 54.7097 28.8461 54.6674 28.9643 54.7375C29.0825 54.8076 29.1233 54.9635 29.0555 55.0857L28.1002 56.8077C28.0985 56.8109 28.0966 56.8141 28.0947 56.8173C28.0704 56.8569 28.0446 56.8973 28.0174 56.938C27.8877 57.1819 27.7666 57.5143 27.7356 57.8294C27.7039 58.1512 27.7689 58.4033 27.9472 58.5596C28.0816 58.6774 28.2519 58.7617 28.4313 58.8042C28.6407 58.8538 28.8908 58.8264 29.124 58.7302C29.3568 58.6342 29.5504 58.4788 29.6613 58.2988L30.6955 56.5478C30.7665 56.4276 30.9183 56.3896 31.0346 56.4631C31.1509 56.5365 31.1876 56.6935 31.1166 56.8137L30.0813 58.5666L30.0792 58.5702C30.0746 58.5776 30.0699 58.585 30.0652 58.5924L30.0654 58.5926C29.8942 58.8726 29.7312 59.1845 29.6898 59.4703C29.6698 59.6079 29.6799 59.7281 29.7225 59.8326C29.7643 59.9352 29.8455 60.043 30.0017 60.1441L30.0129 60.1514L30.0234 60.1599C30.2768 60.3663 30.5842 60.3678 30.8974 60.234C31.2151 60.0983 31.4981 59.8368 31.645 59.5981L32.4828 58.172C32.5536 58.0516 32.7053 58.0132 32.8218 58.0864C32.9382 58.1595 32.9753 58.3164 32.9046 58.4368L32.0655 59.8651C32.0651 59.8658 32.0647 59.8664 32.0643 59.8671C32.0639 59.8678 32.0634 59.8685 32.063 59.8691C32.0573 59.8784 32.0515 59.8877 32.0456 59.897L32.0497 59.8992L30.545 62.987L30.5439 62.9891C30.387 63.2962 30.3263 63.563 30.3421 63.7699C30.3571 63.9653 30.44 64.1176 30.6061 64.2263C30.7536 64.3229 30.9253 64.362 31.1013 64.329C31.276 64.2962 31.4731 64.1888 31.663 63.9597L35.1289 59.3223L36.6618 56.9555C37.6552 55.4217 37.1639 53.3373 35.5993 52.448L31.5544 50.1489ZM31.1092 60.6954C31.1014 60.6988 31.0936 60.7022 31.0858 60.7056C30.6698 60.8832 30.1635 60.9162 29.7286 60.5692C29.5056 60.4222 29.3531 60.2403 29.2677 60.0306C29.1817 59.8193 29.1719 59.6002 29.2018 59.3946C29.2096 59.3403 29.2204 59.2862 29.2336 59.2325C28.9432 59.3379 28.6199 59.3722 28.3212 59.3015C28.0727 59.2427 27.8286 59.1246 27.6281 58.9488C27.2736 58.638 27.205 58.1813 27.2447 57.7777C27.2463 57.7615 27.2481 57.7452 27.25 57.729C27.2385 57.7362 27.227 57.7433 27.2154 57.7502C26.8795 57.9507 26.4638 58.0285 26.055 57.7608C25.6849 57.5184 25.4227 57.206 25.3268 56.7896C25.2333 56.3838 25.3081 55.9223 25.5176 55.3981L26.745 51.7148C27.4595 49.5707 29.87 48.6093 31.7922 49.7018L35.8371 52.0009C37.6553 53.0344 38.2263 55.4568 37.0718 57.2394L35.5296 59.6206L32.0462 64.2813L32.0425 64.2859C31.7897 64.593 31.4945 64.7738 31.1894 64.831C30.8844 64.8882 30.5879 64.8183 30.3421 64.6574C30.0382 64.4584 29.8769 64.1574 29.8502 63.8102C29.8245 63.4752 29.9241 63.1108 30.1064 62.7531L31.1092 60.6954Z" fill="black"/>
<path d="M69.0461 60.5514L67.5206 63.3524C67.0992 64.1261 66.2769 64.5711 65.4218 64.4882C64.9177 64.4393 64.616 63.8849 64.8373 63.414L66.7325 59.3814C66.9203 58.982 67.2099 58.6407 67.4857 58.3002C68.4265 57.1388 69.6965 54.7741 73.4829 55.2128C76.3337 55.5431 80.0233 58.5741 78.6082 62.5286C77.476 65.6922 75.2868 66.0752 74.3337 65.8712C73.4917 66.5798 72.4872 66.8057 71.9501 66.8182L70.1716 69.9528C69.8846 70.4586 69.2241 70.5713 68.7952 70.1876C68.4757 69.9018 68.3903 69.4269 68.576 69.0345C70.1409 65.7264 71.7305 60.659 70.8438 60.2746C69.8953 59.8633 69.3904 60.2086 69.0461 60.5514Z" fill="#F8AF78"/>
<path fill-rule="evenodd" clip-rule="evenodd" d="M69.2723 55.9502C70.2319 55.2302 71.5578 54.7332 73.5104 54.9595C74.9975 55.1318 76.6886 56.0029 77.8304 57.3432C78.9801 58.6927 79.5845 60.5356 78.8396 62.6173C77.7062 65.7842 75.5163 66.3161 74.3999 66.1426C73.5707 66.8043 72.6654 67.0398 72.0933 67.0701L70.3845 70.0821C70.0194 70.7255 69.1793 70.8688 68.6338 70.3807C68.2264 70.0163 68.1214 69.415 68.3543 68.9226C69.1308 67.2811 69.9142 65.2011 70.3922 63.4877C70.6316 62.6292 70.791 61.8749 70.8378 61.3184C70.8613 61.0384 70.8547 60.8255 70.8241 60.6802C70.8089 60.6085 70.7901 60.5638 70.7741 60.538C70.7597 60.5149 70.7503 60.5109 70.7485 60.5101C70.3129 60.3212 70.0055 60.3165 69.7807 60.3772C69.5646 60.4356 69.3956 60.5621 69.243 60.7101L67.7356 63.4777C67.2664 64.3392 66.3509 64.8347 65.3988 64.7424C64.7232 64.6769 64.3188 63.9338 64.6154 63.3027L66.5106 59.2701C66.6972 58.8731 66.9755 58.5312 67.2269 58.2223C67.2504 58.1935 67.2736 58.1649 67.2965 58.1366C67.393 58.0175 67.496 57.8809 67.6077 57.7328C68.0136 57.1944 68.5341 56.504 69.2723 55.9502ZM72.3731 66.5257C72.8732 66.4406 73.5538 66.1989 74.1779 65.6736C74.5785 65.3364 74.957 64.8816 75.2512 64.2733C75.3121 64.1473 75.4603 64.0962 75.5822 64.1592C75.704 64.2223 75.7534 64.3755 75.6925 64.5015C75.4712 64.959 75.2055 65.3411 74.9166 65.6583C75.9045 65.6091 77.4755 64.9586 78.3768 62.4403C79.047 60.5675 78.5141 58.9176 77.4601 57.6804C76.3983 56.434 74.8191 55.6245 73.4555 55.4665C71.6216 55.254 70.4193 55.72 69.5621 56.3631C68.8867 56.8698 68.4241 57.4823 68.0213 58.0156C67.9019 58.1737 67.7877 58.3248 67.6748 58.4642C67.6533 58.4907 67.632 58.5171 67.6107 58.5432C67.3518 58.8619 67.1129 59.156 66.9545 59.4931L65.0592 63.5257C64.9132 63.8364 65.1123 64.2022 65.4449 64.2344C66.203 64.3079 66.932 63.9134 67.3056 63.2274L68.8489 60.3938L68.875 60.3678C69.0599 60.1838 69.3087 59.9774 69.656 59.8836C70.0069 59.7888 70.4262 59.8171 70.9392 60.0395C71.1613 60.1358 71.2616 60.36 71.3062 60.5715C71.3522 60.7899 71.3547 61.0617 71.3294 61.3626C71.2785 61.9678 71.109 62.7591 70.8663 63.6291C70.3799 65.3725 69.586 67.4802 68.7976 69.1468C68.6593 69.4391 68.725 69.7877 68.9566 69.9949C69.2689 70.2743 69.7499 70.1922 69.9588 69.8239L71.7338 66.6955L73.6077 62.9263C73.67 62.801 73.8188 62.7516 73.94 62.816C74.0611 62.8804 74.1089 63.0342 74.0466 63.1595L72.3731 66.5257Z" fill="black"/>
<path fill-rule="evenodd" clip-rule="evenodd" d="M47.109 31.1405C47.2365 30.9602 47.3498 30.7998 47.4398 30.6606L47.8895 30.8361C47.8049 31.4922 48.1073 32.1397 48.7007 32.8388C49.2747 33.5152 50.0805 34.1935 50.9519 34.9271C50.9799 34.9506 51.0079 34.9742 51.036 34.9978C51.9315 35.7519 52.8832 36.5602 53.6643 37.4578C54.4461 38.3562 55.0726 39.361 55.3003 40.515C55.4258 41.1513 55.4984 42.4748 55.5336 44.1895C55.569 45.9137 55.5666 48.0581 55.5363 50.3529C55.4757 54.9424 55.3032 60.1411 55.0964 63.7981L54.6038 63.7683C54.8101 60.1202 54.9824 54.9293 55.0429 50.3459C55.0732 48.0542 55.0755 45.9164 55.0403 44.2003C55.0049 42.4747 54.9317 41.1997 54.8168 40.617C54.6134 39.5865 54.0483 38.6619 53.2975 37.7991C52.5459 36.9355 51.624 36.1509 50.7244 35.3934C50.6904 35.3648 50.6565 35.3363 50.6226 35.3077C49.7664 34.5871 48.9318 33.8847 48.3298 33.1753C47.895 32.663 47.5605 32.1231 47.4354 31.5465C46.8339 32.4019 46.0434 33.5555 45.8325 34.9916C45.5804 36.7078 46.1634 38.8869 49.2102 41.409L51.0885 37.4255L51.5017 41.2438C52.2257 41.5252 52.9077 42.3225 53.4274 43.8117C53.9881 45.4188 54.38 47.8836 54.4222 51.54C54.4378 52.8885 54.4026 55.3533 54.3653 57.7759C54.3619 57.9996 54.3584 58.2229 54.355 58.4449C54.321 60.6317 54.289 62.6964 54.2949 63.7818L53.8015 63.7846C53.7956 62.6933 53.8277 60.6227 53.8615 58.439C53.865 58.2161 53.8685 57.9921 53.8719 57.7678C53.9093 55.3419 53.9443 52.8857 53.9288 51.5461C53.8869 47.9164 53.4974 45.5158 52.9632 43.9848C52.4266 42.4471 51.764 41.8377 51.2094 41.6816L51.0477 41.6361L50.7872 39.2289L49.3868 42.1987L49.147 42.0068C45.8008 39.3294 45.0509 36.9154 45.3446 34.915C45.5816 33.3011 46.504 31.9964 47.109 31.1405Z" fill="black"/>
<path fill-rule="evenodd" clip-rule="evenodd" d="M61.4957 31.3464C61.353 31.1473 61.228 30.9728 61.127 30.8164L60.6751 30.9581C60.6751 31.4823 60.4261 32.0055 59.9755 32.5613C59.5255 33.1165 58.899 33.6745 58.1927 34.2683C58.0188 34.4145 57.84 34.5628 57.6584 34.7135C56.3833 35.7713 54.9656 36.9473 54.0645 38.3603L54.4765 38.6411C55.3313 37.3007 56.681 36.1798 57.9629 35.1153C58.1452 34.9639 58.3261 34.8137 58.504 34.6641C59.2098 34.0708 59.8701 33.4856 60.3537 32.889C60.6817 32.4843 60.9399 32.0607 61.0719 31.6121C61.0827 31.6271 61.0935 31.6422 61.1044 31.6574C61.1465 31.7161 61.1893 31.7759 61.2325 31.8367C61.4267 32.1095 61.6346 32.4094 61.8331 32.7376C62.2305 33.3945 62.5843 34.1552 62.7093 35.0146C62.9488 36.6628 62.3579 38.778 59.3067 41.3001L57.4284 37.3164L57.0152 41.1343C56.3033 41.4064 55.5569 42.1673 55.0375 43.6066L55.4999 43.7849C56.026 42.327 56.7548 41.7282 57.3075 41.5726L57.4692 41.5271L57.7297 39.1199L59.13 42.0897L59.3699 41.8977C62.7121 39.2236 63.4789 36.8767 63.1972 34.9388C63.0585 33.9841 62.6681 33.1557 62.2515 32.467C62.043 32.1224 61.8264 31.8103 61.63 31.5343C61.5837 31.4693 61.5389 31.4067 61.4957 31.3464Z" fill="black"/>
<path d="M63.7433 16.5305C63.8274 15.4871 62.8954 15.4436 62.4188 15.5523C62.0895 17.4072 61.5526 21.1126 62.0404 21.0952C62.6501 21.0734 63.1967 20.8995 63.3018 19.6171C63.4069 18.3346 63.6382 17.8347 63.7433 16.5305Z" fill="#F8AF78"/>
<path fill-rule="evenodd" clip-rule="evenodd" d="M63.3904 15.3754C63.0418 15.2176 62.6307 15.2425 62.3658 15.3029L62.2058 15.3394L62.1763 15.506C62.011 16.4369 61.7932 17.8343 61.6779 18.9996C61.6204 19.5803 61.5872 20.1141 61.601 20.5062C61.6077 20.6991 61.6263 20.8774 61.6678 21.0142C61.6884 21.0818 61.7205 21.16 61.7759 21.2249C61.8376 21.297 61.9312 21.354 62.049 21.3498C62.3665 21.3385 62.7304 21.2878 63.0238 21.0198C63.3182 20.7508 63.4928 20.3092 63.5478 19.6383C63.5988 19.0155 63.68 18.5828 63.7634 18.1385L63.7649 18.1302C63.8493 17.6802 63.9356 17.2179 63.9893 16.5514C64.0135 16.2513 63.9663 15.9985 63.8528 15.7947C63.7389 15.5901 63.5706 15.457 63.3904 15.3754ZM63.4251 16.0492C63.4777 16.1435 63.5154 16.2874 63.4976 16.509C63.4462 17.1466 63.3643 17.5864 63.2805 18.0331L63.2783 18.0447C63.1947 18.4904 63.1094 18.9451 63.0561 19.5952C63.006 20.2068 62.8547 20.4935 62.697 20.6375C62.557 20.7654 62.3736 20.8172 62.1314 20.8347C62.1136 20.762 62.0997 20.6476 62.0941 20.4877C62.0816 20.1321 62.1118 19.6269 62.1687 19.0515C62.2752 17.9758 62.4713 16.6924 62.6306 15.7749C62.8156 15.755 63.0269 15.7678 63.1925 15.8428C63.2944 15.8889 63.373 15.9555 63.4251 16.0492Z" fill="black"/>
<path d="M44.3239 16.5817C44.2398 15.5384 45.1719 15.4949 45.6484 15.6036C45.9778 17.4585 46.5146 21.1638 46.0269 21.1464C45.4172 21.1247 44.8706 20.9508 44.7654 19.6683C44.6603 18.3859 44.4291 17.8859 44.3239 16.5817Z" fill="#F8AF78"/>
<path fill-rule="evenodd" clip-rule="evenodd" d="M44.6776 15.4262C45.0262 15.2684 45.4373 15.2933 45.7022 15.3537L45.8621 15.3902L45.8917 15.5568C46.057 16.4877 46.2748 17.885 46.3901 19.0504C46.4476 19.631 46.4808 20.1648 46.467 20.557C46.4602 20.7499 46.4417 20.9282 46.4002 21.065C46.3796 21.1326 46.3475 21.2108 46.2921 21.2756C46.2304 21.3478 46.1368 21.4048 46.019 21.4006C45.7015 21.3893 45.3376 21.3386 45.0442 21.0705C44.7498 20.8015 44.5752 20.36 44.5202 19.6891C44.4692 19.0663 44.388 18.6335 44.3046 18.1892L44.3031 18.181C44.2187 17.731 44.1324 17.2687 44.0787 16.6022C44.0545 16.3021 44.1017 16.0493 44.2152 15.8454C44.3291 15.6408 44.4974 15.5078 44.6776 15.4262ZM44.6429 16.0999C44.5903 16.1943 44.5526 16.3382 44.5704 16.5598C44.6218 17.1974 44.7037 17.6372 44.7875 18.0839L44.7897 18.0955C44.8733 18.5412 44.9586 18.9959 45.0119 19.646C45.062 20.2576 45.2133 20.5442 45.3709 20.6882C45.511 20.8162 45.6944 20.8679 45.9366 20.8855C45.9544 20.8128 45.9683 20.6984 45.9739 20.5385C45.9864 20.1829 45.9562 19.6777 45.8992 19.1023C45.7928 18.0266 45.5967 16.7432 45.4374 15.8257C45.2524 15.8058 45.0411 15.8186 44.8755 15.8936C44.7736 15.9397 44.695 16.0063 44.6429 16.0999Z" fill="black"/>
<path d="M46.0252 4.60342C45.0161 7.71175 45.0161 11.5374 45.1632 13.8198C45.6678 16.689 45.857 24.8402 45.857 24.8402C46.3676 29.463 51.6526 31.3395 54.1614 31.709C59.4174 31.1004 62.1925 27.2747 62.3607 24.8402C62.5289 22.4057 63.1386 14.6892 63.1386 12.0373C63.1386 9.91584 62.564 7.89289 62.2766 7.1466C62.8485 7.65089 63.1877 9.0087 63.2858 9.62457C63.4708 6.11193 61.6669 5.27725 60.7419 5.29898C60.5947 3.60353 59.7538 2.38628 58.3031 1.84286C57.1426 1.40813 55.577 1.27046 54.9393 1.25597C56.0662 1.13424 57.273 1.30669 57.7355 1.40814C54.666 -0.0264798 51.092 1.19077 48.7163 2.25587C46.8157 3.10794 46.1303 5.13235 46.0252 6.03804V4.60342Z" fill="black"/>
<path d="M47.6919 7.88562C46.0436 9.41588 45.8839 14.9283 46.01 17.4932C46.01 18.225 46.1614 19.9712 47.0192 22.1449C47.8769 24.3185 49.4089 24.2461 49.9204 23.8838C50.6605 22.9622 51.7495 22.5651 52.3172 22.4057C52.4685 22.7709 53.0109 22.7028 53.2632 22.6231C54.121 22.9882 55.0362 22.7752 55.3866 22.6231C55.9248 22.797 56.2276 22.5506 56.3117 22.4057C57.468 22.5144 57.7833 23.5795 59.1709 24.0359C60.5585 24.4924 61.8199 22.0144 62.1353 20.3842C62.4506 18.7539 62.3665 13.3633 61.8409 10.168C61.4205 7.61175 60.0819 6.91472 59.4652 6.88574C59.0868 7.21903 57.4386 7.85953 53.8729 7.7552C49.4159 7.62478 49.7522 5.97279 47.6919 7.88562Z" fill="#F8AF78"/>
<path d="M47.259 13.4215C46.9901 13.3191 46.8462 12.9724 46.7922 12.7506C46.7799 12.7003 46.8017 12.6482 46.8441 12.6184C48.7583 11.2687 51.1318 11.8154 52.1545 12.289C52.1962 12.3083 52.2245 12.3477 52.2276 12.3936C52.2629 12.9242 51.8872 13.2611 51.6371 13.3955C51.5952 13.418 51.5444 13.4117 51.5047 13.3856C49.8284 12.2827 47.5568 13.345 47.3 13.4242C47.2862 13.4285 47.2725 13.4267 47.259 13.4215Z" fill="black"/>
<path d="M61.1016 13.4303C61.3705 13.3279 61.5144 12.9812 61.5684 12.7594C61.5807 12.7091 61.5589 12.657 61.5165 12.6272C59.6023 11.2775 57.2288 11.8242 56.2061 12.2978C56.1644 12.3171 56.1361 12.3565 56.133 12.4024C56.0977 12.933 56.4734 13.2699 56.7235 13.4043C56.7654 13.4268 56.8162 13.4205 56.8559 13.3944C58.5322 12.2915 60.8038 13.3538 61.0606 13.433C61.0744 13.4373 61.0881 13.4355 61.1016 13.4303Z" fill="black"/>
<path fill-rule="evenodd" clip-rule="evenodd" d="M44.5681 15.4283V13.9502C45.4301 13.7618 47.7553 13.4415 50.1604 13.6676C51.7192 13.8141 52.2098 14.0015 52.5933 14.148C52.9496 14.2841 53.2135 14.3849 54.155 14.3849C55.0965 14.3849 55.3604 14.2841 55.7166 14.148C56.1002 14.0015 56.5908 13.8141 58.1495 13.6676C60.5546 13.4415 62.8799 13.7618 63.7418 13.9502V15.4283C63.4895 15.7108 62.9597 16.389 62.8588 16.8411C62.7327 17.4063 62.165 19.7756 58.5279 19.58C57.666 19.5582 55.8327 19.2278 55.3954 18.0801C55.2912 17.8067 55.2015 17.5578 55.1208 17.3337C54.7782 16.3824 54.5974 15.8806 54.155 15.863C53.7125 15.8806 53.5318 16.3824 53.1891 17.3338C53.1084 17.5578 53.0187 17.8067 52.9146 18.0801C52.4773 19.2278 50.644 19.5582 49.782 19.58C46.1449 19.7756 45.5773 17.4063 45.4511 16.8411C45.3502 16.389 44.8204 15.7108 44.5681 15.4283ZM46.061 17.0591C45.8928 16.2592 45.9909 15.581 46.061 15.2549C46.4515 13.9474 48.7999 14.1197 50.399 14.2371C50.6076 14.2524 50.8034 14.2668 50.9805 14.2768C52.7122 14.3749 53.146 15.7331 52.7255 17.0591C52.305 18.385 51.7374 19.4066 49.1304 19.211C46.5235 19.0154 46.2712 18.059 46.061 17.0591ZM62.3265 15.2549C62.3966 15.581 62.4947 16.2592 62.3265 17.0591C62.1162 18.059 61.864 19.0154 59.257 19.211C56.6501 19.4066 56.0824 18.385 55.6619 17.0591C55.2415 15.7331 55.6752 14.3749 57.4069 14.2768C57.584 14.2668 57.7798 14.2524 57.9884 14.2371C59.5876 14.1197 61.9359 13.9474 62.3265 15.2549Z" fill="black"/>
<path d="M51.5838 24.4419C52.8926 24.761 53.8647 24.8118 54.1565 24.8117C54.4488 24.8118 55.4229 24.7609 56.7342 24.4407C56.7608 24.4342 56.7866 24.4546 56.7853 24.4829C56.749 25.2579 56.0748 26.7318 54.1565 26.7318C52.241 26.7318 51.566 25.2623 51.5279 24.4863C51.5265 24.4565 51.5548 24.4348 51.5838 24.4419Z" fill="#FF1010"/>
<path d="M51.5838 24.4419C52.8926 24.761 53.8647 24.8118 54.1565 24.8117C54.4488 24.8118 55.4229 24.7609 56.7342 24.4407C56.7608 24.4342 56.7866 24.4546 56.7853 24.4829C56.7755 24.6916 56.7195 24.9511 56.6053 25.2188C56.6016 25.2274 56.5957 25.2345 56.5877 25.2391C56.3717 25.3644 55.6066 25.6015 54.1565 25.6015C52.7064 25.6015 51.9413 25.3644 51.7254 25.2391C51.7173 25.2345 51.7114 25.2274 51.7078 25.2188C51.5943 24.9527 51.5382 24.6948 51.5279 24.4867C51.5265 24.4568 51.5548 24.4348 51.5838 24.4419Z" fill="white"/>
<ellipse cx="49.5292" cy="16.2769" rx="0.861975" ry="0.891201" fill="black"/>
<ellipse cx="49.7605" cy="16.0801" rx="0.294334" ry="0.304663" fill="white"/>
<ellipse cx="58.8218" cy="16.276" rx="0.861977" ry="0.891201" fill="black"/>
<ellipse cx="59.053" cy="16.0801" rx="0.294333" ry="0.304665" fill="white"/>
<path d="M62.8697 65.1074C63.2981 65.1074 63.668 65.4073 63.7566 65.8264L65.0875 72.1236C65.2066 72.6872 64.7767 73.2175 64.2007 73.2175L45.2124 73.2175C44.6431 73.2175 44.2148 72.6989 44.3223 72.1398L45.5333 65.8427C45.6154 65.4159 45.9889 65.1074 46.4235 65.1074L62.8697 65.1074Z" fill="black"/>
<path d="M62.9268 65.7432C63.1347 65.7432 63.3142 65.8887 63.3572 66.0921L64.6163 72.0523C64.674 72.3258 64.4654 72.5831 64.1858 72.5831L45.3906 72.5831C45.114 72.5831 44.9061 72.3309 44.9588 72.0594L46.1159 66.0992C46.156 65.8925 46.3371 65.7432 46.5477 65.7432L62.9268 65.7432Z" fill="white"/>
<path d="M61.6266 66.021C61.7609 66.021 61.8768 66.1154 61.904 66.247L63.0695 71.8915C63.1057 72.0672 62.9715 72.232 62.792 72.232L47.3914 72.232C47.2132 72.232 47.0792 72.0694 47.1134 71.8945L48.2158 66.25C48.2418 66.117 48.3583 66.021 48.4939 66.021L61.6266 66.021Z" fill="black"/>
<path d="M46.6015 68.3232C46.8217 68.3232 47.0001 68.5017 47.0001 68.7218L47.0001 68.7498C47.0001 68.97 46.8217 69.1484 46.6015 69.1484C46.3814 69.1484 46.2029 68.97 46.2029 68.7498L46.2029 68.7218C46.2029 68.5017 46.3814 68.3232 46.6015 68.3232Z" fill="black"/>
<path d="M107.347 42.374L106.431 38.8211H98.7178L97.8014 42.374H89.5922L98.1069 14.74H107.042L115.556 42.374H107.347ZM100.36 32.5047H104.789L102.574 24.0172L100.36 32.5047Z" fill="#E2001A"/>
<path d="M133.164 42.3346L128.926 33.6496H127.017V42.3346H119.381V14.7006H130.072C132.999 14.7006 135.417 15.5954 137.326 17.385C139.235 19.1483 140.19 21.4906 140.19 24.4119C140.19 26.0437 139.821 27.5175 139.083 28.8334C138.37 30.1493 137.365 31.2152 136.066 32.031L141.335 42.3346H133.164ZM127.017 21.9643V27.0964H129.919C130.733 27.1227 131.37 26.9122 131.828 26.4647C132.312 26.0173 132.554 25.3857 132.554 24.5698C132.554 23.754 132.312 23.1223 131.828 22.6749C131.37 22.2012 130.733 21.9643 129.919 21.9643H127.017Z" fill="#E2001A"/>
<path d="M159.319 42.3346L155.081 33.6496H153.172V42.3346H145.536V14.7006H156.227C159.154 14.7006 161.572 15.5954 163.481 17.385C165.391 19.1483 166.345 21.4906 166.345 24.4119C166.345 26.0437 165.976 27.5175 165.238 28.8334C164.525 30.1493 163.52 31.2152 162.221 32.031L167.491 42.3346H159.319ZM153.172 21.9643V27.0964H156.074C156.889 27.1227 157.525 26.9122 157.983 26.4647C158.467 26.0173 158.709 25.3857 158.709 24.5698C158.709 23.754 158.467 23.1223 157.983 22.6749C157.525 22.2012 156.889 21.9643 156.074 21.9643H153.172Z" fill="#E2001A"/>
<path d="M194.571 38.8606C191.847 41.624 188.5 43.0057 184.529 43.0057C180.558 43.0057 177.198 41.624 174.449 38.8606C171.725 36.0708 170.363 32.6363 170.363 28.557C170.363 24.4777 171.725 21.0564 174.449 18.293C177.198 15.5033 180.558 14.1084 184.529 14.1084C188.5 14.1084 191.847 15.5033 194.571 18.293C197.32 21.0564 198.695 24.4777 198.695 28.557C198.695 32.6363 197.32 36.0708 194.571 38.8606ZM179.832 33.3732C181.08 34.6365 182.645 35.2681 184.529 35.2681C186.413 35.2681 187.965 34.6365 189.187 33.3732C190.434 32.0837 191.058 30.4783 191.058 28.557C191.058 26.6358 190.434 25.0436 189.187 23.7803C187.965 22.4907 186.413 21.8459 184.529 21.8459C182.645 21.8459 181.08 22.4907 179.832 23.7803C178.611 25.0436 178 26.6358 178 28.557C178 30.4783 178.611 32.0837 179.832 33.3732Z" fill="#E2001A"/>
<path d="M218.358 14.74H225.995V42.374H219.886L211.486 29.7413V42.374H203.849V14.74H209.958L218.358 27.3727V14.74Z" fill="#E2001A"/>
<rect x="89.579" y="47.5527" width="136.421" height="12.4012" rx="6.20059" fill="#276CAA"/>
<path d="M101.787 57.1017C101.175 57.1017 100.654 56.9576 100.224 56.6694C99.7996 56.3811 99.5026 55.9864 99.3329 55.4851L100.233 54.9399C100.487 55.6793 101.015 56.049 101.815 56.049C102.209 56.049 102.503 55.9707 102.697 55.814C102.897 55.6511 102.997 55.4412 102.997 55.1843C102.997 54.9148 102.891 54.7112 102.678 54.5733C102.466 54.4292 102.091 54.2725 101.551 54.1034C101.248 54.0094 101.003 53.9216 100.815 53.8402C100.627 53.7587 100.427 53.6459 100.215 53.5018C100.009 53.3514 99.8541 53.1666 99.7511 52.9472C99.648 52.7279 99.5965 52.471 99.5965 52.1765C99.5965 51.5937 99.7965 51.1332 100.197 50.7948C100.597 50.4502 101.078 50.2778 101.642 50.2778C102.151 50.2778 102.597 50.4063 102.978 50.6632C103.36 50.9201 103.654 51.2742 103.86 51.7253L102.978 52.2517C102.712 51.6376 102.266 51.3306 101.642 51.3306C101.339 51.3306 101.097 51.4058 100.915 51.5561C100.733 51.7003 100.642 51.8976 100.642 52.1483C100.642 52.3927 100.733 52.5869 100.915 52.7311C101.103 52.8689 101.439 53.0162 101.924 53.1728C102.166 53.2543 102.342 53.3169 102.451 53.3608C102.566 53.3984 102.724 53.4611 102.924 53.5488C103.13 53.6365 103.284 53.7242 103.388 53.812C103.491 53.8997 103.6 54.0094 103.715 54.141C103.836 54.2725 103.921 54.4229 103.969 54.5921C104.018 54.7613 104.042 54.9524 104.042 55.1655C104.042 55.7608 103.833 56.2339 103.415 56.5848C103.003 56.9294 102.46 57.1017 101.787 57.1017Z" fill="white"/>
<path d="M109.58 55.9456H112.399V56.9795H108.535V50.4H112.353V51.4339H109.58V53.1446H112.126V54.1692H109.58V55.9456Z" fill="white"/>
<path d="M120.619 56.9795L119.274 54.5827H118.038V56.9795H116.992V50.4H119.538C120.107 50.4 120.589 50.6068 120.983 51.0204C121.383 51.4277 121.583 51.9258 121.583 52.5149C121.583 52.9347 121.465 53.3201 121.228 53.671C120.998 54.0156 120.695 54.2663 120.319 54.4229L121.765 56.9795H120.619ZM118.038 51.4152V53.6146H119.538C119.816 53.6146 120.053 53.5081 120.247 53.295C120.441 53.082 120.538 52.8219 120.538 52.5149C120.538 52.2078 120.441 51.9478 120.247 51.7347C120.053 51.5217 119.816 51.4152 119.538 51.4152H118.038Z" fill="white"/>
<path d="M127.733 56.9795L125.524 50.4H126.67L128.361 55.673L130.061 50.4H131.197L128.988 56.9795H127.733Z" fill="white"/>
<path d="M135.513 50.4H136.559V56.9795H135.513V50.4Z" fill="white"/>
<path d="M144.476 57.1017C143.519 57.1017 142.725 56.7759 142.094 56.1242C141.464 55.4663 141.149 54.6548 141.149 53.6898C141.149 52.7248 141.464 51.9164 142.094 51.2648C142.725 50.6068 143.519 50.2778 144.476 50.2778C145.052 50.2778 145.582 50.4188 146.067 50.7008C146.558 50.9828 146.94 51.365 147.213 51.8475L146.303 52.3927C146.134 52.0668 145.885 51.8099 145.558 51.6219C145.237 51.4277 144.876 51.3306 144.476 51.3306C143.797 51.3306 143.246 51.553 142.822 51.9979C142.403 52.4428 142.194 53.0068 142.194 53.6898C142.194 54.3728 142.403 54.9368 142.822 55.3817C143.246 55.8266 143.797 56.049 144.476 56.049C144.876 56.049 145.24 55.955 145.567 55.767C145.894 55.5728 146.14 55.3127 146.303 54.9869L147.213 55.5227C146.946 56.0052 146.567 56.3905 146.076 56.6788C145.591 56.9607 145.058 57.1017 144.476 57.1017Z" fill="white"/>
<path d="M152.763 55.9456H155.581V56.9795H151.718V50.4H155.536V51.4339H152.763V53.1446H155.308V54.1692H152.763V55.9456Z" fill="white"/>
<path d="M169.093 57.1017C168.135 57.1017 167.342 56.7759 166.711 56.1242C166.081 55.4663 165.766 54.6548 165.766 53.6898C165.766 52.7248 166.081 51.9164 166.711 51.2648C167.342 50.6068 168.135 50.2778 169.093 50.2778C169.669 50.2778 170.199 50.4188 170.684 50.7008C171.175 50.9828 171.557 51.365 171.829 51.8475L170.92 52.3927C170.751 52.0668 170.502 51.8099 170.175 51.6219C169.854 51.4277 169.493 51.3306 169.093 51.3306C168.414 51.3306 167.863 51.553 167.438 51.9979C167.02 52.4428 166.811 53.0068 166.811 53.6898C166.811 54.3728 167.02 54.9368 167.438 55.3817C167.863 55.8266 168.414 56.049 169.093 56.049C169.493 56.049 169.857 55.955 170.184 55.767C170.511 55.5728 170.757 55.3127 170.92 54.9869L171.829 55.5227C171.563 56.0052 171.184 56.3905 170.693 56.6788C170.208 56.9607 169.675 57.1017 169.093 57.1017Z" fill="white"/>
<path d="M177.38 55.9456H180.198V56.9795H176.334V50.4H180.153V51.4339H177.38V53.1446H179.925V54.1692H177.38V55.9456Z" fill="white"/>
<path d="M188.61 50.4H189.655V56.9795H188.837L185.837 52.5149V56.9795H184.792V50.4H185.61L188.61 54.8647V50.4Z" fill="white"/>
<path d="M198.699 50.4V51.4339H196.908V56.9795H195.863V51.4339H194.063V50.4H198.699Z" fill="white"/>
<path d="M204.154 55.9456H206.972V56.9795H203.109V50.4H206.927V51.4339H204.154V53.1446H206.7V54.1692H204.154V55.9456Z" fill="white"/>
<path d="M215.193 56.9795L213.848 54.5827H212.611V56.9795H211.566V50.4H214.111C214.681 50.4 215.163 50.6068 215.557 51.0204C215.957 51.4277 216.157 51.9258 216.157 52.5149C216.157 52.9347 216.039 53.3201 215.802 53.671C215.572 54.0156 215.269 54.2663 214.893 54.4229L216.339 56.9795H215.193ZM212.611 51.4152V53.6146H214.111C214.39 53.6146 214.627 53.5081 214.821 53.295C215.015 53.082 215.111 52.8219 215.111 52.5149C215.111 52.2078 215.015 51.9478 214.821 51.7347C214.627 51.5217 214.39 51.4152 214.111 51.4152H212.611Z" fill="white"/>
<path d="M96.7117 67.6V68.656H94.2277V76H93.1237V68.656H90.6517V67.6H96.7117ZM105.76 74.884C104.92 75.732 103.892 76.156 102.676 76.156C101.46 76.156 100.432 75.732 99.5917 74.884C98.7517 74.036 98.3317 73.008 98.3317 71.8C98.3317 70.584 98.7517 69.556 99.5917 68.716C100.432 67.868 101.46 67.444 102.676 67.444C103.892 67.444 104.92 67.868 105.76 68.716C106.608 69.556 107.032 70.584 107.032 71.8C107.032 73.008 106.608 74.036 105.76 74.884ZM100.36 74.128C100.984 74.752 101.756 75.064 102.676 75.064C103.596 75.064 104.364 74.752 104.98 74.128C105.604 73.496 105.916 72.72 105.916 71.8C105.916 70.872 105.604 70.096 104.98 69.472C104.364 68.84 103.596 68.524 102.676 68.524C101.756 68.524 100.984 68.84 100.36 69.472C99.7437 70.096 99.4357 70.872 99.4357 71.8C99.4357 72.72 99.7437 73.496 100.36 74.128ZM114.709 67.6V68.656H112.225V76H111.121V68.656H108.649V67.6H114.709ZM117.253 67.6H118.369V76H117.253V67.6ZM131.031 76L129.147 72.784H127.167V76H126.051V67.6H129.411C130.131 67.6 130.747 67.856 131.259 68.368C131.771 68.872 132.027 69.484 132.027 70.204C132.027 70.748 131.863 71.244 131.535 71.692C131.215 72.14 130.799 72.456 130.287 72.64L132.267 76H131.031ZM127.167 68.644V71.776H129.411C129.827 71.776 130.179 71.624 130.467 71.32C130.763 71.008 130.911 70.636 130.911 70.204C130.911 69.772 130.763 69.404 130.467 69.1C130.179 68.796 129.827 68.644 129.411 68.644H127.167ZM135.943 74.944H139.843V76H134.827V67.6H139.783V68.656H135.943V71.236H139.483V72.28H135.943V74.944ZM145.679 67.6C146.455 67.6 147.099 67.86 147.611 68.38C148.131 68.892 148.391 69.532 148.391 70.3C148.391 71.06 148.131 71.7 147.611 72.22C147.099 72.74 146.455 73 145.679 73H143.747V76H142.631V67.6H145.679ZM145.679 71.956C146.143 71.956 146.527 71.8 146.831 71.488C147.135 71.168 147.287 70.772 147.287 70.3C147.287 69.82 147.135 69.424 146.831 69.112C146.527 68.8 146.143 68.644 145.679 68.644H143.747V71.956H145.679ZM155.825 76L155.141 74.116H151.361L150.677 76H149.489L152.621 67.6H153.881L157.013 76H155.825ZM151.745 73.072H154.757L153.245 68.932L151.745 73.072ZM164.424 76L162.54 72.784H160.56V76H159.444V67.6H162.804C163.524 67.6 164.14 67.856 164.652 68.368C165.164 68.872 165.42 69.484 165.42 70.204C165.42 70.748 165.256 71.244 164.928 71.692C164.608 72.14 164.192 72.456 163.68 72.64L165.66 76H164.424ZM160.56 68.644V71.776H162.804C163.22 71.776 163.572 71.624 163.86 71.32C164.156 71.008 164.304 70.636 164.304 70.204C164.304 69.772 164.156 69.404 163.86 69.1C163.572 68.796 163.22 68.644 162.804 68.644H160.56ZM173.752 76L173.068 74.116H169.288L168.604 76H167.416L170.548 67.6H171.808L174.94 76H173.752ZM169.672 73.072H172.684L171.172 68.932L169.672 73.072ZM182.927 74.944H186.551V76H181.811V67.6H182.927V74.944ZM194.877 76L194.193 74.116H190.413L189.729 76H188.541L191.673 67.6H192.933L196.065 76H194.877ZM190.797 73.072H193.809L192.297 68.932L190.797 73.072ZM208.156 67.6H209.272V76H208.372L204.052 69.724V76H202.936V67.6H203.836L208.156 73.864V67.6ZM219.492 74.884C218.652 75.732 217.624 76.156 216.408 76.156C215.192 76.156 214.164 75.732 213.324 74.884C212.484 74.036 212.064 73.008 212.064 71.8C212.064 70.584 212.484 69.556 213.324 68.716C214.164 67.868 215.192 67.444 216.408 67.444C217.624 67.444 218.652 67.868 219.492 68.716C220.34 69.556 220.764 70.584 220.764 71.8C220.764 73.008 220.34 74.036 219.492 74.884ZM214.092 74.128C214.716 74.752 215.488 75.064 216.408 75.064C217.328 75.064 218.096 74.752 218.712 74.128C219.336 73.496 219.648 72.72 219.648 71.8C219.648 70.872 219.336 70.096 218.712 69.472C218.096 68.84 217.328 68.524 216.408 68.524C215.488 68.524 214.716 68.84 214.092 69.472C213.476 70.096 213.168 70.872 213.168 71.8C213.168 72.72 213.476 73.496 214.092 74.128ZM223.546 67.6H224.662V76H223.546V67.6Z" fill="#276CAA"/>
</svg>
