<svg width="36" height="46" viewBox="0 0 36 46" fill="none" xmlns="http://www.w3.org/2000/svg">
<path d="M1.49663 0.470215C12.442 0.470215 23.3875 0.470215 34.2325 0.470215C35.1362 0.769901 35.4375 1.46917 35.4375 2.36823C35.4375 16.0539 35.4375 29.8395 35.4375 43.5252C35.4375 44.8238 34.835 45.4232 33.63 45.4232C23.1866 45.4232 12.7433 45.4232 2.19954 45.4232C0.894126 45.4232 0.291626 44.8238 0.291626 43.5252C0.291626 29.8395 0.291626 16.0539 0.291626 2.36823C0.291626 1.46917 0.592876 0.769901 1.49663 0.470215Z" fill="#005AAA"/>
<path d="M23.4879 29.24C24.7933 29.24 26.0988 29.24 27.4042 29.24C28.3079 29.24 29.0108 28.6407 29.0108 27.7416C29.0108 26.8425 28.4083 26.2432 27.4042 26.2432C24.7933 26.2432 22.2829 26.2432 19.6721 26.2432C18.6679 26.2432 18.0654 26.8425 18.0654 27.7416C18.0654 28.6407 18.6679 29.24 19.7725 29.24C20.9775 29.24 22.1825 29.24 23.4879 29.24Z" fill="#FFD66B"/>
<path d="M23.4879 17.4524C22.1825 17.4524 20.9775 17.4524 19.6721 17.4524C19.4712 17.4524 19.17 17.4524 18.9691 17.5523C18.2662 17.7521 17.8646 18.4513 17.965 19.2505C18.0654 20.0497 18.6679 20.5492 19.5716 20.5492C22.1825 20.5492 24.6929 20.5492 27.3037 20.5492C28.3079 20.5492 28.9104 19.9498 29.0108 19.0507C29.0108 18.1517 28.4083 17.5523 27.3037 17.5523C26.0987 17.4524 24.7933 17.4524 23.4879 17.4524Z" fill="#FFD66B"/>
<path d="M23.4879 11.5589C24.7933 11.5589 26.0987 11.5589 27.4041 11.5589C28.3079 11.5589 28.9104 10.9595 29.0108 10.0604C29.0108 9.16138 28.4083 8.56201 27.4041 8.56201C24.7933 8.56201 22.1824 8.56201 19.4712 8.56201C18.8687 8.56201 18.3666 8.7618 18.0654 9.36117C17.4629 10.3601 18.1658 11.5589 19.3708 11.5589C20.7766 11.5589 22.1824 11.5589 23.4879 11.5589Z" fill="#FFD66B"/>
<path d="M23.4879 35.1343C22.1825 35.1343 20.8771 35.1343 19.6721 35.1343C18.8688 35.1343 18.3667 35.434 18.1658 36.0333C17.7642 37.0323 18.4671 38.0312 19.6721 38.1311C21.1783 38.1311 22.6846 38.1311 24.1908 38.1311C25.2954 38.1311 26.4 38.1311 27.5046 38.1311C28.1071 38.1311 28.6092 37.9314 28.9104 37.332C29.5129 36.333 28.81 35.1343 27.5046 35.1343C26.0988 35.1343 24.7933 35.1343 23.4879 35.1343Z" fill="#FFD66B"/>
<path d="M9.93168 12.3577C10.3333 12.3577 10.6346 12.2578 10.9358 11.9581C12.0404 10.8593 13.0446 9.86034 14.1492 8.76149C14.7517 8.06222 14.7517 7.26306 14.1492 6.56379C13.5467 5.96441 12.6429 5.96441 11.94 6.56379C11.4379 7.06326 10.9358 7.56274 10.4338 8.06222C9.83126 8.66159 9.83126 8.66159 9.32918 8.16211C8.62626 7.56274 7.82293 7.56274 7.22043 8.16211C6.61793 8.76149 6.61793 9.66055 7.22043 10.2599C7.72251 10.8593 8.32501 11.3588 8.8271 11.8582C9.12835 12.2578 9.4296 12.3577 9.93168 12.3577Z" fill="#FFD66B"/>
<path d="M9.83122 38.9299C10.2329 38.9299 10.6345 38.7302 10.9358 38.4305C11.94 37.4315 13.0445 36.3327 14.0487 35.3337C14.7516 34.6344 14.7516 33.7354 14.0487 33.136C13.4462 32.5366 12.5425 32.5366 11.8395 33.2359C11.3375 33.7354 10.735 34.3348 10.2329 34.8342C9.7308 35.3337 9.7308 35.3337 9.32913 34.8342C8.62622 34.135 7.82288 34.135 7.11997 34.7343C6.51747 35.3337 6.51747 36.2328 7.11997 36.932C7.62205 37.4315 8.12413 37.931 8.62622 38.4305C9.02788 38.83 9.42955 38.9299 9.83122 38.9299Z" fill="#FFD66B"/>
<path d="M8.22458 16.6536C7.62208 16.6536 7.12 16.9533 6.81875 17.5527C6.5175 18.152 6.61791 18.7514 7.12 19.151C7.62208 19.7504 8.12416 20.2498 8.72666 20.7493C9.42958 21.4486 10.2329 21.4486 10.9358 20.7493C11.94 19.7504 13.0446 18.6515 14.0487 17.6526C14.7517 16.9533 14.7517 16.0542 14.0487 15.4549C13.4462 14.8555 12.5425 14.8555 11.8396 15.5547C11.2371 16.1541 10.735 16.6536 10.1325 17.253C9.83125 17.5527 9.63041 17.6526 9.32916 17.253C9.12833 16.8534 8.72666 16.5537 8.22458 16.6536Z" fill="#FFD66B"/>
<path d="M9.83119 30.0393C10.3333 30.0393 10.6345 29.8395 10.9358 29.5398C11.9399 28.5409 12.9441 27.442 14.0487 26.4431C14.7516 25.7438 14.7516 24.8448 14.1491 24.2454C13.5466 23.646 12.6429 23.646 11.9399 24.3453C11.4379 24.8448 10.9358 25.3442 10.4337 25.9436C9.93161 26.4431 9.93161 26.4431 9.42952 25.9436C8.72661 25.3442 7.92327 25.3442 7.32077 25.9436C6.71827 26.543 6.71827 27.442 7.32077 28.1413C7.82285 28.6408 8.42536 29.2402 8.92744 29.7396C9.12827 29.9394 9.42952 30.0393 9.83119 30.0393Z" fill="#FFD66B"/>
</svg>
