<svg width="36" height="36" viewBox="0 0 36 36" fill="none" xmlns="http://www.w3.org/2000/svg">
<path d="M17.8396 35.1477C27.5448 35.1477 35.4125 27.3209 35.4125 17.666C35.4125 8.01115 27.5448 0.184326 17.8396 0.184326C8.13433 0.184326 0.266663 8.01115 0.266663 17.666C0.266663 27.3209 8.13433 35.1477 17.8396 35.1477Z" fill="#005AAA"/>
<path fill-rule="evenodd" clip-rule="evenodd" d="M13.1199 7.57678H22.5591C25.5716 7.57678 28.082 10.0741 28.082 13.071V22.4111C28.082 25.408 25.5716 27.9053 22.5591 27.9053H13.1199C10.1074 27.9053 7.59698 25.408 7.59698 22.4111V13.071C7.59698 10.0242 10.1074 7.57678 13.1199 7.57678ZM23.3122 11.123C23.9649 11.123 24.467 11.6725 24.467 12.2718C24.467 12.9211 23.9147 13.4206 23.3122 13.4206C22.6093 13.4206 22.1574 12.8712 22.1574 12.2718C22.1574 11.6725 22.6595 11.123 23.3122 11.123ZM17.8395 12.1719C20.9022 12.1719 23.4628 14.7192 23.4628 17.7161C23.4628 20.7629 20.9022 23.2602 17.8897 23.2602H17.8395C14.827 23.2602 12.3166 20.7629 12.3166 17.7161C12.3166 14.7192 14.7768 12.1719 17.8395 12.1719ZM17.8395 14.0699C19.898 14.0699 21.5549 15.7182 21.5549 17.7161C21.5549 19.7639 19.898 21.4122 17.8897 21.4122H17.8395C15.8312 21.4122 14.1743 19.7639 14.1743 17.7161C14.1743 15.7182 15.8312 14.0699 17.8395 14.0699ZM13.1701 9.32494H22.5089C24.6176 9.32494 26.3247 11.0231 26.3247 13.1209V22.3612C26.3247 24.459 24.6176 26.1572 22.5089 26.1572H13.1701C11.0614 26.1572 9.35428 24.459 9.35428 22.3612V13.1209C9.35428 11.0231 11.0614 9.32494 13.1701 9.32494Z" fill="#FFD66B"/>
</svg>
