<svg width="17" height="17" viewBox="0 0 17 17" fill="none" xmlns="http://www.w3.org/2000/svg">
<path d="M15.2344 13.1714V15.4649C15.2352 15.6779 15.1916 15.8886 15.1061 16.0837C15.0206 16.2788 14.8953 16.4539 14.7381 16.5979C14.5809 16.7418 14.3953 16.8514 14.1932 16.9196C13.9911 16.9878 13.777 17.0132 13.5645 16.994C11.2075 16.7384 8.94334 15.9345 6.95408 14.6469C5.10332 13.4731 3.53421 11.907 2.35816 10.0598C1.06363 8.0653 0.258013 5.79451 0.00658349 3.43138C-0.0125581 3.21996 0.0126156 3.00689 0.0805014 2.80571C0.148387 2.60454 0.257498 2.41968 0.400887 2.2629C0.544276 2.10612 0.718801 1.98086 0.913351 1.89509C1.1079 1.80932 1.31821 1.76492 1.5309 1.76472H3.82885C4.20059 1.76107 4.56098 1.89246 4.84284 2.13439C5.1247 2.37633 5.3088 2.71231 5.36082 3.0797C5.45782 3.81369 5.63769 4.53438 5.89702 5.228C6.00007 5.50165 6.02238 5.79904 5.96129 6.08494C5.90019 6.37085 5.75827 6.63328 5.55232 6.84115L4.57952 7.81209C5.66994 9.7261 7.25775 11.3109 9.17544 12.3992L10.1482 11.4283C10.3565 11.2227 10.6194 11.0811 10.9059 11.0201C11.1923 10.9591 11.4903 10.9814 11.7645 11.0842C12.4594 11.3431 13.1815 11.5226 13.9169 11.6194C14.289 11.6718 14.6288 11.8589 14.8717 12.145C15.1146 12.4312 15.2437 12.7964 15.2344 13.1714Z" fill="#E2001A"/>
<path d="M9.91086 4.05809C10.659 4.20378 11.3466 4.56898 11.8856 5.10696C12.4246 5.64494 12.7905 6.33121 12.9365 7.07795M9.91086 1C11.4653 1.17235 12.9147 1.8671 14.0213 2.97018C15.1279 4.07325 15.8258 5.51909 16.0004 7.0703" stroke="#E2001A" stroke-width="2" stroke-linecap="round" stroke-linejoin="round"/>
</svg>
