<svg width="193" height="37" viewBox="0 0 193 37" fill="none" xmlns="http://www.w3.org/2000/svg">
<path d="M29.9625 18.8429C29.8339 18.4143 29.4054 18.0714 28.9339 18.0714L19.2482 17.8571L16.0339 8.72857C15.9054 8.3 15.4768 8 15.0054 8C14.5339 8 14.1054 8.3 13.9768 8.72857L10.7625 17.8571L1.07679 18.0714C0.605357 18.0714 0.176786 18.3714 0.0482143 18.8429C-0.0803571 19.2714 0.0482143 19.7857 0.433929 20.0857L8.14821 25.9571L5.3625 35.2143C5.23393 35.6857 5.40536 36.1571 5.79107 36.4143C6.17679 36.6714 6.69107 36.7143 7.07679 36.4143L15.0054 30.9286L22.9768 36.4143C23.3625 36.6714 23.8768 36.6714 24.2625 36.4143C24.6482 36.1571 24.8196 35.6429 24.6911 35.2143L21.8625 25.9571L29.5768 20.0857C29.9625 19.7857 30.0911 19.3143 29.9625 18.8429Z" fill="#FFD66B"/>
<path d="M70.9679 18.8429C70.8393 18.4143 70.4107 18.0714 69.9393 18.0714L60.2536 17.8571L57.0393 8.72857C56.9107 8.3 56.4822 8 56.0107 8C55.5393 8 55.1107 8.3 54.9822 8.72857L51.7679 17.8571L42.0822 18.0714C41.6107 18.0714 41.1822 18.3714 41.0536 18.8429C40.925 19.2714 41.0536 19.7857 41.4393 20.0857L49.1536 25.9571L46.3679 35.2143C46.2393 35.6857 46.4107 36.1571 46.7964 36.4143C47.1822 36.6714 47.6964 36.7143 48.0822 36.4143L56.0107 30.9286L63.9822 36.4143C64.3679 36.6714 64.8822 36.6714 65.2679 36.4143C65.6536 36.1571 65.825 35.6429 65.6964 35.2143L62.8679 25.9571L70.5822 20.0857C70.9679 19.7857 71.0964 19.3143 70.9679 18.8429Z" fill="#FFD66B"/>
<path d="M110.968 18.8429C110.839 18.4143 110.411 18.0714 109.939 18.0714L100.254 17.8571L97.0393 8.72857C96.9107 8.3 96.4822 8 96.0107 8C95.5393 8 95.1107 8.3 94.9822 8.72857L91.7679 17.8571L82.0822 18.0714C81.6107 18.0714 81.1822 18.3714 81.0536 18.8429C80.925 19.2714 81.0536 19.7857 81.4393 20.0857L89.1536 25.9571L86.3679 35.2143C86.2393 35.6857 86.4107 36.1571 86.7964 36.4143C87.1822 36.6714 87.6964 36.7143 88.0822 36.4143L96.0107 30.9286L103.982 36.4143C104.368 36.6714 104.882 36.6714 105.268 36.4143C105.654 36.1571 105.825 35.6429 105.696 35.2143L102.868 25.9571L110.582 20.0857C110.968 19.7857 111.096 19.3143 110.968 18.8429Z" fill="#FFD66B"/>
<path d="M150.968 18.8429C150.839 18.4143 150.411 18.0714 149.939 18.0714L140.254 17.8571L137.039 8.72857C136.911 8.3 136.482 8 136.011 8C135.539 8 135.111 8.3 134.982 8.72857L131.768 17.8571L122.082 18.0714C121.611 18.0714 121.182 18.3714 121.054 18.8429C120.925 19.2714 121.054 19.7857 121.439 20.0857L129.154 25.9571L126.368 35.2143C126.239 35.6857 126.411 36.1571 126.796 36.4143C127.182 36.6714 127.696 36.7143 128.082 36.4143L136.011 30.9286L143.982 36.4143C144.368 36.6714 144.882 36.6714 145.268 36.4143C145.654 36.1571 145.825 35.6429 145.696 35.2143L142.868 25.9571L150.582 20.0857C150.968 19.7857 151.096 19.3143 150.968 18.8429Z" fill="#FFD66B"/>
<path d="M192.331 11.2613C192.202 10.822 191.771 10.4706 191.298 10.4706L181.619 10.2509L178.349 0.893658C178.177 0.454351 177.79 0.146836 177.317 0.146836V0.102905C177.059 0.102905 176.8 0.234697 176.628 0.41042C176.456 0.542212 176.327 0.717935 176.284 0.893658L173.058 10.207L163.378 10.4266C163.12 10.4266 162.862 10.5584 162.647 10.7341C162.475 10.8659 162.389 11.0417 162.303 11.2613C162.173 11.7006 162.303 12.2278 162.69 12.5353L170.433 18.5538L167.637 28.0428C167.508 28.5261 167.68 29.0093 168.067 29.2729C168.282 29.4047 168.497 29.4926 168.713 29.4926C168.928 29.4926 169.143 29.4047 169.358 29.2729L177.317 23.6498L185.318 29.2729C185.491 29.4047 185.749 29.4926 185.964 29.4926C186.179 29.4926 186.437 29.4047 186.609 29.2729C186.996 29.0093 187.168 28.4822 187.039 28.0428L184.2 18.5538L191.944 12.5353C192.331 12.2278 192.46 11.7445 192.331 11.2613ZM183.34 17.3677L182.522 17.9827L182.823 18.9492L185.318 27.4717L178.134 22.4197L177.317 21.8486V2.34337L180.199 10.7781L180.543 11.7445L181.533 11.7885L190.266 11.9642L183.34 17.3677Z" fill="#FFD66B"/>
</svg>
