<svg width="36" height="36" viewBox="0 0 36 36" fill="none" xmlns="http://www.w3.org/2000/svg">
<path d="M18.2563 35.06C27.9615 35.06 35.8292 27.2331 35.8292 17.5783C35.8292 7.92338 27.9615 0.0965576 18.2563 0.0965576C8.55101 0.0965576 0.68335 7.92338 0.68335 17.5783C0.68335 27.2331 8.55101 35.06 18.2563 35.06Z" fill="#005AAA"/>
<path fill-rule="evenodd" clip-rule="evenodd" d="M24.4419 11.7043C23.3173 11.1449 22.4738 9.88622 22.3332 8.48768C22.3332 8.20797 22.1926 7.92827 22.1926 7.64856H18.8186V15.4804V21.0745C18.8186 22.6129 17.5533 23.8716 16.0069 23.8716C15.4446 23.8716 15.0228 23.7317 14.6011 23.5919C13.7576 23.1723 13.0547 22.1933 13.0547 21.0745C13.0547 19.5361 14.3199 18.2774 16.0069 18.2774C16.2881 18.2774 16.5693 18.2774 16.8504 18.4173V15.7601V15.0608C16.5693 15.0608 16.2881 14.9209 16.0069 14.9209C12.6329 14.9209 9.82126 17.718 9.82126 21.0745C9.82126 23.1723 10.9459 24.9904 12.4923 26.1092C13.4764 26.8085 14.7417 27.2281 16.0069 27.2281C19.3809 27.2281 22.1926 24.431 22.1926 21.0745V14.0818C23.4578 15.2007 25.1448 15.7601 26.8318 15.6202V13.1029V12.2637C25.9883 12.5434 25.1448 12.2637 24.4419 11.7043Z" fill="#FFD66B"/>
</svg>
