<svg width="37" height="36" viewBox="0 0 37 36" fill="none" xmlns="http://www.w3.org/2000/svg">
<path d="M18.4646 35.06C28.1698 35.06 36.0375 27.2331 36.0375 17.5783C36.0375 7.92338 28.1698 0.0965576 18.4646 0.0965576C8.75933 0.0965576 0.891663 7.92338 0.891663 17.5783C0.891663 27.2331 8.75933 35.06 18.4646 35.06Z" fill="#005AAA"/>
<path fill-rule="evenodd" clip-rule="evenodd" d="M12.4195 10.7254C14.3877 10.5855 16.637 10.4457 18.4646 10.4457C20.2922 10.4457 22.5415 10.5855 24.5097 10.7254C26.759 10.8652 28.0243 11.2848 28.3054 13.6623C28.446 14.7811 28.5866 16.1797 28.5866 17.5782C28.5866 19.1166 28.446 20.5151 28.3054 21.4941C28.0243 23.8716 26.759 24.1513 24.5097 24.431C22.5415 24.5709 20.2922 24.7108 18.4646 24.7108C16.637 24.7108 14.3877 24.7107 12.4195 24.431C10.1702 24.2912 8.90493 23.8716 8.62377 21.4941C8.48318 20.5151 8.48318 18.9768 8.48318 17.5782C8.48318 16.0398 8.62377 14.6413 8.62377 13.6623C8.90493 11.2848 10.1702 10.8652 12.4195 10.7254Z" fill="#FFD66B"/>
<path fill-rule="evenodd" clip-rule="evenodd" d="M16.4964 14.5013L21.698 17.5781L16.4964 20.6549V14.5013Z" fill="#005AAA"/>
</svg>
