<svg width="80" height="80" viewBox="0 0 80 80" fill="none" xmlns="http://www.w3.org/2000/svg">
<g clip-path="url(#clip0_3_608)">
<path d="M67.9 80.6002H73.4C75.6 80.6002 77.5 78.8002 77.5 76.5002V50.3002C77.5 49.1002 77 48.0002 76.1 47.3002V44.8002C76.1 42.6002 74.3 40.7002 72 40.7002V12.7002C73.6 12.2002 74.8 10.6002 74.8 8.9002C74.8 8.80019 74.8 8.7002 74.8 8.6002L73.4 1.7002C73.3 1.1002 72.7 0.700195 72.1 0.700195H69.3C68.7 0.700195 68.2 1.1002 68 1.7002L66.6 8.6002C66.6 8.7002 66.6 8.80019 66.6 8.9002C66.6 10.7002 67.8 12.2002 69.4 12.7002V40.7002H69.3C67.1 40.7002 65.2 42.5002 65.2 44.8002V47.3002C64.4 48.0002 63.8 49.1002 63.8 50.3002V76.6002C63.8 78.8002 65.7 80.6002 67.9 80.6002Z" fill="#005AAA"/>
<path d="M74.9 76.5003C74.9 77.3003 74.2 78.0003 73.4 78.0003H67.9C67.1 78.0003 66.4 77.3003 66.4 76.5003V50.3003C66.4 49.5003 67.1 48.8003 67.9 48.8003H73.4C74.2 48.8003 74.9 49.5003 74.9 50.3003V76.5003Z" fill="#FFD66B"/>
<path d="M67.8 44.7002C67.8 43.9002 68.5 43.2002 69.3 43.2002H72.1C72.9 43.2002 73.6 43.9002 73.6 44.7002V46.2002H73.5H68H67.9V44.7002H67.8Z" fill="#005AAA"/>
<path d="M70.7 51.7002C70 51.7002 69.4 52.3002 69.4 53.0002V73.7002C69.4 74.4002 70 75.0002 70.7 75.0002C71.4 75.0002 72 74.4002 72 73.7002V53.0002C72 52.3002 71.4 51.7002 70.7 51.7002Z" fill="#005AAA"/>
<path d="M43.5 3H11.5C8.50001 3 6.10001 5.4 6.10001 8.4V71.5C6.10001 74.5 8.50001 76.9 11.5 76.9H43.4C46.4 76.9 48.8 74.5 48.8 71.5V8.5C48.9 5.4 46.5 3 43.5 3Z" fill="#3D8AFF"/>
<path d="M48.9 15.7998H6.10001V58.5998H48.9V15.7998Z" fill="#FFD66B"/>
<path d="M42.9 0H11C6.3 0 2.5 3.8 2.5 8.5V15.8V58.6V71.6C2.5 76.3 6.3 80.1 11 80.1H42.9C47.6 80.1 51.4 76.3 51.4 71.6V58.6V15.8V8.5C51.3 3.8 47.5 0 42.9 0ZM11 6H42.9C44.2 6 45.3 7.1 45.3 8.4V12.7H8.5V8.5C8.5 7.1 9.6 6 11 6ZM45.3 55.6H8.5V18.8H45.3V55.6ZM42.9 74H11C9.7 74 8.6 72.9 8.6 71.6V61.6H45.4V71.6C45.3 72.9 44.2 74 42.9 74Z" fill="#005AAA"/>
<path d="M29.1 64.7002H26.8C25.1 64.7002 23.8 66.0002 23.8 67.7002C23.8 69.4002 25.1 70.7002 26.8 70.7002H29.1C30.8 70.7002 32.1 69.4002 32.1 67.7002C32.2 66.0002 30.8 64.7002 29.1 64.7002Z" fill="#FFD66B"/>
</g>
<defs>
<clipPath id="clip0_3_608">
<rect width="80" height="80" fill="white"/>
</clipPath>
</defs>
</svg>
