<svg width="90" height="14" viewBox="0 0 90 14" fill="none" xmlns="http://www.w3.org/2000/svg">
<path d="M10.0641 5.52852L1.94811 0.362955C1.29987 -0.0518458 0.450684 0.414798 0.450684 1.18607V12.2496C0.450684 13.0468 1.35174 13.5005 1.99349 13.0338L10.1095 7.13587C10.6734 6.72755 10.6475 5.89795 10.0641 5.52852Z" fill="#DCE0E2"/>
<path d="M29.7263 5.52852L21.6104 0.362955C20.9622 -0.0518458 20.113 0.414798 20.113 1.18607V12.2496C20.113 13.0468 21.014 13.5005 21.6558 13.0338L29.7717 7.13587C30.3292 6.72755 30.3033 5.89795 29.7263 5.52852Z" fill="#DCE0E2"/>
<path d="M49.386 5.52852L41.27 0.362955C40.6218 -0.0518458 39.7726 0.414798 39.7726 1.18607V12.2496C39.7726 13.0468 40.6736 13.5005 41.3154 13.0338L49.4313 7.13587C49.9888 6.72755 49.9629 5.89795 49.386 5.52852Z" fill="#DCE0E2"/>
<path d="M69.0475 5.52852L60.9315 0.362955C60.2833 -0.0518458 59.4341 0.414798 59.4341 1.18607V12.2496C59.4341 13.0468 60.3351 13.5005 60.9769 13.0338L69.0928 7.13587C69.6503 6.72755 69.6244 5.89795 69.0475 5.52852Z" fill="#DCE0E2"/>
<path d="M88.7091 5.52852L80.5931 0.362955C79.9449 -0.0518458 79.0957 0.414798 79.0957 1.18607V12.2496C79.0957 13.0468 79.9968 13.5005 80.6385 13.0338L88.7545 7.13587C89.3119 6.72755 89.286 5.89795 88.7091 5.52852Z" fill="#DCE0E2"/>
</svg>
