<svg width="57" height="57" viewBox="0 0 57 57" fill="none" xmlns="http://www.w3.org/2000/svg">
<path d="M2.82858 0.102539C1.47399 0.102539 0.378662 1.19787 0.378662 2.55245C0.378662 3.90704 1.47399 5.00237 2.82858 5.00237C4.18316 5.00237 5.27849 3.90704 5.27849 2.55245C5.27849 1.19787 4.18316 0.102539 2.82858 0.102539Z" fill="#005AAA"/>
<path d="M19.9941 0.102539C18.6395 0.102539 17.5442 1.19787 17.5442 2.55245C17.5442 3.90704 18.6395 5.00237 19.9941 5.00237C21.3487 5.00237 22.444 3.90704 22.444 2.55245C22.444 1.19787 21.3487 0.102539 19.9941 0.102539Z" fill="#005AAA"/>
<path d="M37.1598 0.102539C35.8052 0.102539 34.7098 1.19787 34.7098 2.55245C34.7098 3.90704 35.8052 5.00237 37.1598 5.00237C38.5143 5.00237 39.6097 3.90704 39.6097 2.55245C39.6097 1.19787 38.5143 0.102539 37.1598 0.102539Z" fill="#005AAA"/>
<path d="M54.3254 5.00872C55.68 5.00872 56.7753 3.91338 56.7753 2.5588C56.7753 1.20422 55.68 0.108887 54.3254 0.108887C52.9708 0.108887 51.8755 1.20422 51.8755 2.5588C51.8755 3.91338 52.9708 5.00872 54.3254 5.00872Z" fill="#005AAA"/>
<path d="M2.82846 17.2651C1.47387 17.2651 0.37854 18.3605 0.37854 19.7151C0.37854 21.0696 1.47387 22.165 2.82846 22.165C4.18304 22.165 5.27837 21.0696 5.27837 19.7151C5.28485 18.3605 4.18304 17.2651 2.82846 17.2651Z" fill="#005AAA"/>
<path d="M19.9941 17.2646C18.6395 17.2646 17.5442 18.36 17.5442 19.7146C17.5442 21.0691 18.6395 22.1645 19.9941 22.1645C21.3487 22.1645 22.444 21.0691 22.444 19.7146C22.444 18.36 21.3487 17.2646 19.9941 17.2646Z" fill="#005AAA"/>
<path d="M37.1598 17.2646C35.8052 17.2646 34.7098 18.36 34.7098 19.7146C34.7098 21.0691 35.8052 22.1645 37.1598 22.1645C38.5143 22.1645 39.6097 21.0691 39.6097 19.7146C39.6097 18.36 38.5143 17.2646 37.1598 17.2646Z" fill="#005AAA"/>
<path d="M54.3254 17.2646C52.9708 17.2646 51.8755 18.36 51.8755 19.7146C51.8755 21.0691 52.9708 22.1645 54.3254 22.1645C55.68 22.1645 56.7753 21.0691 56.7753 19.7146C56.7753 18.36 55.68 17.2646 54.3254 17.2646Z" fill="#005AAA"/>
<path d="M2.82846 34.4272C1.47387 34.4272 0.37854 35.5226 0.37854 36.8772C0.37854 38.2317 1.47387 39.3271 2.82846 39.3271C4.18304 39.3271 5.27837 38.2317 5.27837 36.8772C5.28485 35.5226 4.18304 34.4272 2.82846 34.4272Z" fill="#005AAA"/>
<path d="M19.9941 34.4272C18.6395 34.4272 17.5442 35.5226 17.5442 36.8772C17.5442 38.2317 18.6395 39.3271 19.9941 39.3271C21.3487 39.3271 22.444 38.2317 22.444 36.8772C22.444 35.5226 21.3487 34.4272 19.9941 34.4272Z" fill="#005AAA"/>
<path d="M37.1598 34.4272C35.8052 34.4272 34.7098 35.5226 34.7098 36.8772C34.7098 38.2317 35.8052 39.3271 37.1598 39.3271C38.5143 39.3271 39.6097 38.2317 39.6097 36.8772C39.6097 35.5226 38.5143 34.4272 37.1598 34.4272Z" fill="#005AAA"/>
<path d="M54.3254 34.4272C52.9708 34.4272 51.8755 35.5226 51.8755 36.8772C51.8755 38.2317 52.9708 39.3271 54.3254 39.3271C55.68 39.3271 56.7753 38.2317 56.7753 36.8772C56.7753 35.5226 55.68 34.4272 54.3254 34.4272Z" fill="#005AAA"/>
<path d="M2.82846 51.583C1.47387 51.583 0.37854 52.6783 0.37854 54.0329C0.37854 55.3875 1.47387 56.4828 2.82846 56.4828C4.18304 56.4828 5.27837 55.3875 5.27837 54.0329C5.28485 52.6848 4.18304 51.583 2.82846 51.583Z" fill="#005AAA"/>
<path d="M19.9941 51.583C18.6395 51.583 17.5442 52.6783 17.5442 54.0329C17.5442 55.3875 18.6395 56.4828 19.9941 56.4828C21.3487 56.4828 22.444 55.3875 22.444 54.0329C22.444 52.6848 21.3487 51.583 19.9941 51.583Z" fill="#005AAA"/>
<path d="M37.1598 51.583C35.8052 51.583 34.7098 52.6783 34.7098 54.0329C34.7098 55.3875 35.8052 56.4828 37.1598 56.4828C38.5143 56.4828 39.6097 55.3875 39.6097 54.0329C39.6097 52.6848 38.5143 51.583 37.1598 51.583Z" fill="#005AAA"/>
<path d="M54.3254 51.583C52.9708 51.583 51.8755 52.6783 51.8755 54.0329C51.8755 55.3875 52.9708 56.4828 54.3254 56.4828C55.68 56.4828 56.7753 55.3875 56.7753 54.0329C56.7753 52.6848 55.68 51.583 54.3254 51.583Z" fill="#005AAA"/>
</svg>
