<svg width="42" height="42" viewBox="0 0 42 42" fill="none" xmlns="http://www.w3.org/2000/svg">
<g opacity="0.1" clip-path="url(#clip0_3_634)">
<path d="M40.7231 15.8879L37.567 15.2018C37.2926 14.3615 36.9526 13.542 36.5513 12.7525L38.2985 10.0347C38.6106 9.54912 38.542 8.91158 38.134 8.50368L33.2173 3.58693C32.8094 3.17903 32.1719 3.11042 31.6863 3.42246L28.9685 5.16967C28.179 4.76834 27.3594 4.42843 26.5192 4.15399L25.8331 0.997919C25.7106 0.434 25.2112 0.0317383 24.6341 0.0317383H17.681C17.1039 0.0317383 16.6046 0.434 16.4821 0.997919L15.796 4.15399C14.9557 4.42843 14.1362 4.76834 13.3467 5.16967L10.6289 3.42246C10.1433 3.11042 9.50576 3.17903 9.09786 3.58693L4.18111 8.50368C3.77321 8.91158 3.7046 9.54912 4.01664 10.0347L5.76384 12.7525C5.36252 13.542 5.0226 14.3615 4.74816 15.2018L1.5921 15.8879C1.02818 16.0107 0.625916 16.5098 0.625916 17.0868V24.04C0.625916 24.617 1.02818 25.1161 1.5921 25.2389L4.74816 25.925C5.0226 26.7653 5.36252 27.5848 5.76384 28.3743L4.01664 31.0921C3.7046 31.5777 3.77321 32.2152 4.18111 32.6231L9.09786 37.5399C9.50576 37.9478 10.1433 38.0164 10.6289 37.7043L13.3467 35.9571C14.1362 36.3585 14.9557 36.6984 15.796 36.9728L16.4821 40.1289C16.6046 40.6928 17.1039 41.0951 17.681 41.0951H24.6341C25.2112 41.0951 25.7106 40.6928 25.8331 40.1289L26.5192 36.9728C27.3594 36.6984 28.179 36.3585 28.9685 35.9571L31.6863 37.7043C32.1719 38.0164 32.8094 37.9481 33.2173 37.5399L38.134 32.6231C38.542 32.2152 38.6106 31.5777 38.2985 31.0921L36.5513 28.3743C36.9526 27.5848 37.2926 26.7653 37.567 25.925L40.7231 25.2389C41.287 25.1161 41.6892 24.617 41.6892 24.04V17.0868C41.6892 16.5098 41.287 16.0107 40.7231 15.8879ZM28.5195 20.5634C28.5195 24.6227 25.2169 27.9254 21.1576 27.9254C17.0983 27.9254 13.7956 24.6227 13.7956 20.5634C13.7956 16.5041 17.0983 13.2014 21.1576 13.2014C25.2169 13.2014 28.5195 16.5041 28.5195 20.5634Z" fill="black"/>
</g>
<defs>
<clipPath id="clip0_3_634">
<rect width="41.0633" height="41.0633" fill="white" transform="translate(0.625916 0.0317383)"/>
</clipPath>
</defs>
</svg>
