<svg width="26" height="25" viewBox="0 0 26 25" fill="none" xmlns="http://www.w3.org/2000/svg">
<g opacity="0.1" clip-path="url(#clip0_3_630)">
<path d="M1.34463 22.0186H24.5107C24.8122 22.0186 25.0565 21.7742 25.0565 21.4727V20.9814C25.0569 20.9732 25.059 20.9656 25.059 20.9573C25.059 20.8682 25.0376 20.7841 24.9998 20.7099L22.6309 14.7467V3.65472C22.6309 3.35323 22.3865 3.10889 22.0851 3.10889H3.77039C3.46891 3.10889 3.22456 3.35323 3.22456 3.65472V14.7467L0.837285 20.7559C0.826594 20.7827 0.81911 20.8101 0.812815 20.8378C0.81127 20.8448 0.810082 20.8518 0.808776 20.859C0.802836 20.8908 0.799154 20.923 0.799035 20.9552C0.799035 20.9559 0.798798 20.9566 0.798798 20.9573V21.4727C0.798798 21.7742 1.04314 22.0186 1.34463 22.0186ZM10.5801 20.2571L11.0795 18.7128H14.7758L15.2752 20.2571H10.5801ZM4.82926 4.50143H21.0262V14.0044H4.82926V4.50143Z" fill="black"/>
</g>
<defs>
<clipPath id="clip0_3_630">
<rect width="24.2602" height="24.2602" fill="white" transform="translate(0.798798 0.433594)"/>
</clipPath>
</defs>
</svg>
