<svg width="30" height="31" viewBox="0 0 30 31" fill="none" xmlns="http://www.w3.org/2000/svg">
<g opacity="0.1" clip-path="url(#clip0_3_642)">
<path d="M27.8493 2.35742H2.00847C1.06287 2.35742 0.293365 3.12693 0.293365 4.07252V21.1092C0.293365 22.0548 1.06287 22.8243 2.00847 22.8243H27.8493C28.7949 22.8243 29.5644 22.0548 29.5644 21.1092V4.07252C29.5644 3.12693 28.7949 2.35742 27.8493 2.35742Z" fill="black"/>
<path d="M24.0761 27.055H19.4453V24.5396H10.4125V27.055H5.78169C5.30832 27.055 4.92414 27.4392 4.92414 27.9126C4.92414 28.386 5.30832 28.7701 5.78169 28.7701H24.0761C24.5495 28.7701 24.9337 28.386 24.9337 27.9126C24.9337 27.4392 24.5495 27.055 24.0761 27.055Z" fill="black"/>
</g>
<defs>
<clipPath id="clip0_3_642">
<rect width="29.2711" height="29.2711" fill="white" transform="translate(0.293365 0.928223)"/>
</clipPath>
</defs>
</svg>
