<svg width="34" height="34" viewBox="0 0 34 34" fill="none" xmlns="http://www.w3.org/2000/svg">
<g opacity="0.1" clip-path="url(#clip0_3_638)">
<path d="M10.6213 33.1219H23.6938C25.2981 33.1219 26.5989 31.8214 26.5989 30.2169V2.90994C26.5989 1.30541 25.2981 0.00488281 23.6938 0.00488281L10.6213 0.00488281C9.01706 0.00488281 7.71625 1.30541 7.71625 2.90994L7.71625 30.2169C7.71625 31.8213 9.01706 33.1219 10.6213 33.1219ZM18.4186 31.2707H15.8964C15.5807 31.2707 15.3252 31.0149 15.3252 30.6995C15.3252 30.3841 15.5807 30.1284 15.8964 30.1284H18.4186C18.7343 30.1284 18.9898 30.3841 18.9898 30.6995C18.9898 31.0149 18.7343 31.2707 18.4186 31.2707ZM14.3196 1.82031L19.9954 1.82031C20.1432 1.82031 20.2632 1.94011 20.2632 2.08804C20.2632 2.23597 20.1432 2.35577 19.9954 2.35577L14.3196 2.35577C14.1718 2.35577 14.0518 2.23597 14.0518 2.08804C14.0518 1.94011 14.1718 1.82031 14.3196 1.82031ZM9.12558 4.15264L25.1894 4.15264V28.974H9.12558L9.12558 4.15264Z" fill="black"/>
</g>
<defs>
<clipPath id="clip0_3_638">
<rect width="33.1171" height="33.1171" fill="white" transform="translate(0.59906 0.00488281)"/>
</clipPath>
</defs>
</svg>
